<svg width="80" height="80" viewBox="0 0 80 80" fill="none" xmlns="http://www.w3.org/2000/svg">
<path d="M40 80C62.0914 80 80 62.0914 80 40C80 17.9086 62.0914 0 40 0C17.9086 0 0 17.9086 0 40C0 62.0914 17.9086 80 40 80Z" fill="#DA2229"/>
<path d="M23.0354 57.7749C22.6194 57.7749 22.2817 57.4373 22.2817 57.0213V49.167C22.2817 48.751 22.6194 48.4134 23.0354 48.4134C23.4514 48.4134 23.789 48.751 23.789 49.167V57.0213C23.789 57.4373 23.4521 57.7749 23.0354 57.7749Z" fill="white"/>
<path d="M23.0351 52.8432C22.2333 52.8432 20.8308 52.2674 19.8119 51.1995C18.8171 50.1573 18.328 48.8211 18.3973 47.3357C18.5737 43.5721 22.5347 41.5871 22.7028 41.5042C23.0766 41.3211 23.528 41.4755 23.7111 41.8486C23.8943 42.2216 23.7405 42.6731 23.3675 42.8562C23.3343 42.8728 20.0365 44.539 19.9023 47.4058C19.8518 48.4842 20.1879 49.4104 20.9016 50.158C21.702 50.996 22.7375 51.3352 23.0344 51.3352C23.4504 51.3352 23.788 51.6728 23.788 52.0888C23.788 52.5048 23.4519 52.8432 23.0351 52.8432Z" fill="white"/>
<path d="M23.0354 52.8431C22.6194 52.8431 22.2817 52.5055 22.2817 52.0895C22.2817 51.6735 22.6194 51.3359 23.0354 51.3359C23.3323 51.3359 24.3678 50.9975 25.1681 50.1587C25.8818 49.4111 26.2179 48.485 26.1674 47.4065C26.0325 44.5232 22.7369 42.8743 22.7038 42.8577C22.33 42.6745 22.1755 42.2231 22.3594 41.8493C22.5425 41.4755 22.9939 41.3218 23.3677 41.5049C23.5365 41.5878 27.4968 43.5729 27.6732 47.3364C27.7425 48.8218 27.2534 50.1572 26.2586 51.2002C25.2397 52.2674 23.838 52.8431 23.0354 52.8431Z" fill="white"/>
<path d="M25.4326 40.0052C25.0166 40.0052 24.679 39.6676 24.679 39.2516V29.7266C24.679 29.3106 25.0166 28.973 25.4326 28.973H32.7457C33.1617 28.973 33.4993 29.3106 33.4993 29.7266C33.4993 30.1426 33.1617 30.4802 32.7457 30.4802H26.1862V39.2516C26.1862 39.6684 25.8486 40.0052 25.4326 40.0052Z" fill="white"/>
<path d="M53.9894 57.7749H26.3066C25.8906 57.7749 25.553 57.4373 25.553 57.0213C25.553 56.6053 25.8906 56.2676 26.3066 56.2676H53.9894C55.2208 56.2676 56.2224 55.2661 56.2224 54.0347V37.5288H48.8369C48.4209 37.5288 48.0833 37.1912 48.0833 36.7752C48.0833 36.3592 48.4209 36.0216 48.8369 36.0216H56.976C57.392 36.0216 57.7296 36.3592 57.7296 36.7752V54.0347C57.7296 56.0966 56.0521 57.7749 53.9894 57.7749Z" fill="white"/>
<path d="M48.8369 57.7749C48.4209 57.7749 48.0833 57.4372 48.0833 57.0212V20.0711H33.4992V57.0212C33.4992 57.4372 33.1616 57.7749 32.7456 57.7749C32.3296 57.7749 31.9919 57.4372 31.9919 57.0212V19.3175C31.9919 18.9015 32.3296 18.5639 32.7456 18.5639H48.8369C49.2529 18.5639 49.5905 18.9015 49.5905 19.3175V57.0212C49.5905 57.4372 49.2529 57.7749 48.8369 57.7749Z" fill="white"/>
<path d="M43.4501 57.7749C43.0341 57.7749 42.6965 57.4372 42.6965 57.0212V49.0163H38.6593V57.0212C38.6593 57.4372 38.3217 57.7749 37.9057 57.7749C37.4897 57.7749 37.1521 57.4372 37.1521 57.0212V48.2627C37.1521 47.8467 37.4897 47.509 37.9057 47.509H43.4501C43.8661 47.509 44.2037 47.8467 44.2037 48.2627V57.0212C44.2037 57.4372 43.8668 57.7749 43.4501 57.7749Z" fill="white"/>
</svg>
