<svg width="40" height="40" viewBox="0 0 40 40" fill="none" xmlns="http://www.w3.org/2000/svg">
<path d="M5.03536 39.7749C4.61936 39.7749 4.28174 39.4373 4.28174 39.0213V31.167C4.28174 30.751 4.61936 30.4134 5.03536 30.4134C5.45136 30.4134 5.78898 30.751 5.78898 31.167V39.0213C5.78898 39.4373 5.45211 39.7749 5.03536 39.7749Z" fill="#54616c"/>
<path d="M5.03514 34.8432C4.23328 34.8432 2.83079 34.2674 1.81189 33.1995C0.817108 32.1573 0.328005 30.8211 0.397338 29.3357C0.573686 25.5721 4.53473 23.5871 4.70279 23.5042C5.07659 23.3211 5.52801 23.4755 5.71114 23.8486C5.89427 24.2216 5.74053 24.6731 5.36749 24.8562C5.33433 24.8728 2.03647 26.539 1.90233 29.4058C1.85183 30.4842 2.18795 31.4104 2.90163 32.158C3.70198 32.996 4.73746 33.3352 5.03439 33.3352C5.45039 33.3352 5.78801 33.6728 5.78801 34.0888C5.78801 34.5048 5.4519 34.8432 5.03514 34.8432Z" fill="#54616c"/>
<path d="M5.03536 34.8431C4.61936 34.8431 4.28174 34.5055 4.28174 34.0895C4.28174 33.6735 4.61936 33.3359 5.03536 33.3359C5.33229 33.3359 6.36776 32.9975 7.16811 32.1587C7.88179 31.4111 8.21791 30.485 8.16741 29.4065C8.03252 26.5232 4.73693 24.8743 4.70377 24.8577C4.32997 24.6745 4.17548 24.2231 4.35936 23.8493C4.54249 23.4755 4.99391 23.3218 5.36771 23.5049C5.53652 23.5878 9.4968 25.5729 9.67315 29.3364C9.74249 30.8218 9.25338 32.1572 8.2586 33.2002C7.2397 34.2674 5.83797 34.8431 5.03536 34.8431Z" fill="#54616c"/>
<path d="M7.43258 22.0052C7.01658 22.0052 6.67896 21.6676 6.67896 21.2516V11.7266C6.67896 11.3106 7.01658 10.973 7.43258 10.973H14.7457C15.1617 10.973 15.4993 11.3106 15.4993 11.7266C15.4993 12.1426 15.1617 12.4802 14.7457 12.4802H8.1862V21.2516C8.1862 21.6684 7.84858 22.0052 7.43258 22.0052Z" fill="#54616c"/>
<path d="M35.9894 39.7749H8.3066C7.8906 39.7749 7.55298 39.4373 7.55298 39.0213C7.55298 38.6053 7.8906 38.2676 8.3066 38.2676H35.9894C37.2208 38.2676 38.2224 37.2661 38.2224 36.0347V19.5288H30.8369C30.4209 19.5288 30.0833 19.1912 30.0833 18.7752C30.0833 18.3592 30.4209 18.0216 30.8369 18.0216H38.976C39.392 18.0216 39.7296 18.3592 39.7296 18.7752V36.0347C39.7296 38.0966 38.0521 39.7749 35.9894 39.7749Z" fill="#54616c"/>
<path d="M30.8369 39.7749C30.4209 39.7749 30.0833 39.4372 30.0833 39.0212V2.07115H15.4992V39.0212C15.4992 39.4372 15.1616 39.7749 14.7456 39.7749C14.3296 39.7749 13.9919 39.4372 13.9919 39.0212V1.31753C13.9919 0.901526 14.3296 0.563904 14.7456 0.563904H30.8369C31.2529 0.563904 31.5905 0.901526 31.5905 1.31753V39.0212C31.5905 39.4372 31.2529 39.7749 30.8369 39.7749Z" fill="#54616c"/>
<path d="M25.4501 39.7749C25.0341 39.7749 24.6965 39.4372 24.6965 39.0212V31.0163H20.6593V39.0212C20.6593 39.4372 20.3217 39.7749 19.9057 39.7749C19.4897 39.7749 19.1521 39.4372 19.1521 39.0212V30.2627C19.1521 29.8467 19.4897 29.509 19.9057 29.509H25.4501C25.8661 29.509 26.2037 29.8467 26.2037 30.2627V39.0212C26.2037 39.4372 25.8668 39.7749 25.4501 39.7749Z" fill="#54616c"/>
</svg>
