<svg width="47" height="47" viewBox="0 0 47 47" fill="none" xmlns="http://www.w3.org/2000/svg">
<circle cx="23.5" cy="23.5" r="23.5" fill="#DA2128"/>
<path d="M33.3952 23.2528L26.0119 16.3072C25.8012 16.1087 25.5203 16 25.2207 16C24.9207 16 24.6402 16.1091 24.4295 16.3072L23.7593 16.9382C23.5486 17.136 23.4327 17.4006 23.4327 17.6824C23.4327 17.9643 23.5486 18.2375 23.7593 18.4353L28.0663 22.496H14.3818C13.7648 22.496 13.2773 22.9502 13.2773 23.5311V24.4228C13.2773 25.0032 13.7648 25.5036 14.3818 25.5036H28.1154L23.7593 29.587C23.5486 29.7851 23.4327 30.0424 23.4327 30.3242C23.4327 30.6057 23.5486 30.8668 23.7593 31.065L24.4295 31.6935C24.6402 31.8917 24.9211 32 25.2207 32C25.5203 32 25.8012 31.8905 26.0119 31.6924L33.3952 24.7468C33.6063 24.5478 33.7226 24.2824 33.7218 24.0002C33.7226 23.7172 33.6067 23.4514 33.3952 23.2528Z" fill="white"/>
</svg>
