<svg width="56" height="56" viewBox="0 0 56 56" fill="none" xmlns="http://www.w3.org/2000/svg">
<path fill-rule="evenodd" clip-rule="evenodd" d="M46.2174 8.87497C45.3882 8.87497 44.7161 9.5607 44.7161 10.4068C44.7161 10.7838 44.8498 11.129 45.0715 11.3959L45.0756 11.4013C45.1061 11.4378 45.1383 11.4725 45.1718 11.5054C49.2093 15.8974 51.6816 21.805 51.6816 28.302C51.6816 35.0839 48.9882 41.2231 44.6329 45.6672C40.2775 50.1118 34.2603 52.8601 27.6139 52.8601C24.7686 52.8601 22.0388 52.3563 19.5055 51.4312C19.4604 51.4121 19.4134 51.3953 19.3659 51.3803L19.3624 51.3786C19.2246 51.3361 19.078 51.3133 18.9267 51.3133C18.0981 51.3133 17.4255 51.9991 17.4255 52.8451C17.4255 53.5392 17.8782 54.125 18.4981 54.3135C21.3463 55.3529 24.4156 55.9195 27.6139 55.9195C35.0878 55.9195 41.8544 52.8278 46.7522 47.8302C51.6505 42.8321 54.6799 35.9282 54.6799 28.302C54.6799 21.0044 51.9056 14.3686 47.3755 9.43145C47.0999 9.09158 46.6836 8.87497 46.2174 8.87497ZM41.6867 4.98681C40.8581 4.98681 40.1855 5.67253 40.1855 6.51862C40.1855 7.36411 40.8581 8.05043 41.6867 8.05043C42.5159 8.05043 43.1879 7.36411 43.1879 6.51862C43.1879 5.67253 42.5159 4.98681 41.6867 4.98681ZM36.8142 2.32169C33.9419 1.26259 30.8445 0.68457 27.6139 0.68457C20.14 0.68457 13.3739 3.77572 8.47561 8.77385C3.57787 13.7714 0.547852 20.6759 0.547852 28.302C0.547852 35.5841 3.31046 42.2074 7.82352 47.1415C8.09913 47.4778 8.51314 47.692 8.97641 47.692C9.8056 47.692 10.4776 47.0063 10.4776 46.1602C10.4776 45.7844 10.3451 45.4404 10.1246 45.1741L10.1187 45.1663C10.0894 45.131 10.0583 45.0975 10.0261 45.0658C6.0068 40.6768 3.5462 34.7829 3.5462 28.302C3.5462 21.5202 6.24019 15.3804 10.5955 10.9369C14.9508 6.49229 20.968 3.744 27.6139 3.744C30.4862 3.744 33.2406 4.2574 35.7944 5.19922C35.975 5.27761 36.1738 5.32069 36.3826 5.32069C37.2118 5.32069 37.8838 4.63497 37.8838 3.78888C37.8838 3.09598 37.4328 2.51078 36.8142 2.32169ZM13.5411 48.5537C12.7125 48.5537 12.0398 49.2394 12.0398 50.0855C12.0398 50.9316 12.7125 51.6173 13.5411 51.6173C14.3703 51.6173 15.0423 50.9316 15.0423 50.0855C15.0423 49.2394 14.3703 48.5537 13.5411 48.5537Z" fill="#54616C"/>
<path d="M8.85039 29.8657C8.85039 30.2437 9.17439 30.5677 9.55239 30.5677H12.6484C13.0264 30.5677 13.3504 30.2437 13.3504 29.8657C13.3504 29.4877 13.0264 29.1637 12.6484 29.1637H9.55239C9.17439 29.1637 8.85039 29.4877 8.85039 29.8657ZM14.4989 33.2677C14.4989 33.7897 14.9309 34.2217 15.4349 34.2217H22.3469C22.7789 34.2217 23.1569 33.8617 23.1569 33.4117C23.1569 32.9797 22.7789 32.6377 22.3469 32.6377H17.4509C19.3049 31.1977 20.6909 29.9377 21.6089 28.8757C22.5269 27.8137 22.9949 26.7337 22.9949 25.6537C22.9949 23.3317 21.0149 22.0357 18.8009 22.0357C17.3789 22.0357 16.0109 22.5217 15.0209 23.4037C14.8229 23.5657 14.7329 23.7817 14.7329 24.0157C14.7329 24.4657 15.0929 24.8257 15.5429 24.8257C15.7229 24.8257 15.8849 24.7717 16.0469 24.6457C16.8389 23.9797 17.7569 23.6377 18.8189 23.6377C20.1149 23.6377 21.1589 24.3397 21.1589 25.6537C21.1589 26.8597 20.2769 28.0657 18.5489 29.5777C17.7029 30.3157 16.4789 31.3057 14.8769 32.5117C14.6249 32.7097 14.4989 32.9617 14.4989 33.2677ZM29.817 22.0357C26.631 21.9817 25.101 25.1317 25.119 28.2277C25.101 31.3237 26.631 34.4917 29.817 34.4377C33.003 34.4917 34.533 31.3237 34.515 28.2277C34.533 25.1317 33.003 21.9817 29.817 22.0357ZM29.817 23.6377C30.807 23.6377 31.527 24.0697 31.977 24.9517C32.445 25.8337 32.679 26.9137 32.679 28.2277C32.679 29.5417 32.445 30.6397 31.977 31.5217C31.527 32.4037 30.807 32.8357 29.817 32.8357C28.827 32.8357 28.107 32.4037 27.639 31.5217C27.189 30.6397 26.955 29.5417 26.955 28.2277C26.955 26.9137 27.189 25.8337 27.639 24.9517C28.107 24.0697 28.827 23.6377 29.817 23.6377ZM35.8877 25.0237C35.8877 26.6977 37.0757 27.9757 38.8037 27.9757C40.5497 27.9757 41.7557 26.6977 41.7557 25.0237C41.7557 23.3137 40.5497 22.0357 38.8037 22.0357C37.0757 22.0357 35.8877 23.3137 35.8877 25.0237ZM37.9757 33.8617C37.9757 34.0957 38.2097 34.3117 38.4437 34.3117C38.6057 34.3117 38.7137 34.2397 38.8037 34.0957L46.0397 22.8457C46.0757 22.7557 46.0937 22.6657 46.0937 22.5757C46.0937 22.3417 45.8777 22.1257 45.6437 22.1257C45.4817 22.1257 45.3197 22.2157 45.2477 22.3417L38.0657 33.6097C38.0117 33.6997 37.9757 33.7717 37.9757 33.8617ZM40.5137 25.0237C40.5137 26.1757 39.8117 27.0217 38.8037 27.0217C37.8137 27.0217 37.1117 26.1757 37.1117 25.0237C37.1117 23.8537 37.8137 23.0257 38.8037 23.0257C39.8117 23.0257 40.5137 23.8537 40.5137 25.0237ZM42.2417 31.4857C42.2417 33.1597 43.4297 34.4377 45.1757 34.4377C46.9217 34.4377 48.1097 33.1597 48.1097 31.4857C48.1097 29.7757 46.9217 28.4977 45.1757 28.4977C43.4297 28.4977 42.2417 29.7757 42.2417 31.4857ZM46.8857 31.4857C46.8857 32.6377 46.1837 33.4837 45.1757 33.4837C44.1677 33.4837 43.4657 32.6377 43.4657 31.4857C43.4657 30.3157 44.1677 29.4877 45.1757 29.4877C46.1837 29.4877 46.8857 30.3157 46.8857 31.4857Z" fill="#DA2128"/>
</svg>
