<svg width="170" height="52" viewBox="0 0 170 52" fill="none" xmlns="http://www.w3.org/2000/svg">
<rect width="170" height="52" rx="4" fill="black"/>
<path d="M72.2716 36.92C72.2716 36.84 72.2316 36.7 72.1716 36.5L67.9916 25.86C67.6716 25.08 66.9316 24.54 66.0716 24.54C65.2116 24.54 64.4716 25.08 64.1516 25.86L59.9716 36.5C59.9116 36.7 59.8716 36.84 59.8716 36.92C59.8716 37.58 60.4116 38.12 61.0716 38.12C61.5716 38.12 62.0116 37.82 62.1716 37.36L62.8716 35.44H69.2716L69.9716 37.36C70.1316 37.82 70.5716 38.12 71.0716 38.12C71.7316 38.12 72.2716 37.58 72.2716 36.92ZM63.6116 33.38L66.0716 26.64L68.5316 33.38H63.6116ZM83.6486 33.16C83.6486 30.02 81.8886 28.1 79.3686 28.1C78.1086 28.1 76.9886 28.68 76.2686 29.66V29.28C76.2686 28.7 75.7886 28.22 75.2286 28.22C74.6486 28.22 74.1686 28.7 74.1686 29.28V40.74C74.1686 41.32 74.6486 41.8 75.2286 41.8C75.7886 41.8 76.2686 41.32 76.2686 40.74V36.66C77.0486 37.7 78.1486 38.24 79.3686 38.24C81.8886 38.24 83.6486 36.3 83.6486 33.16ZM81.4686 33.16C81.4686 35.06 80.4086 36.38 78.7486 36.38C77.7886 36.38 76.7486 35.8 76.2686 35.08V31.26C76.7486 30.54 77.7886 29.96 78.7486 29.96C80.4086 29.96 81.4686 31.26 81.4686 33.16ZM95.2502 33.16C95.2502 30.02 93.4902 28.1 90.9702 28.1C89.7102 28.1 88.5902 28.68 87.8702 29.66V29.28C87.8702 28.7 87.3902 28.22 86.8302 28.22C86.2502 28.22 85.7702 28.7 85.7702 29.28V40.74C85.7702 41.32 86.2502 41.8 86.8302 41.8C87.3902 41.8 87.8702 41.32 87.8702 40.74V36.66C88.6502 37.7 89.7502 38.24 90.9702 38.24C93.4902 38.24 95.2502 36.3 95.2502 33.16ZM93.0702 33.16C93.0702 35.06 92.0102 36.38 90.3502 36.38C89.3902 36.38 88.3502 35.8 87.8702 35.08V31.26C88.3502 30.54 89.3902 29.96 90.3502 29.96C92.0102 29.96 93.0702 31.26 93.0702 33.16ZM101.988 35.9C101.988 36.26 102.128 36.56 102.428 36.78C103.708 37.76 105.268 38.24 107.128 38.24C110.608 38.24 112.288 36.42 112.288 34.12C112.288 32.34 111.228 31.3 109.928 30.76C109.288 30.5 108.468 30.24 107.468 29.98C106.088 29.64 105.408 29.42 104.908 29C104.648 28.78 104.528 28.52 104.528 28.2C104.528 27.18 105.448 26.54 106.988 26.54C108.028 26.54 109.148 26.86 110.088 27.48C110.268 27.62 110.468 27.68 110.708 27.68C111.328 27.68 111.808 27.16 111.808 26.58C111.808 26.2 111.608 25.86 111.308 25.68C109.968 24.86 108.728 24.46 107.188 24.46C104.128 24.46 102.128 26.14 102.128 28.36C102.128 30.1 103.168 31.12 104.428 31.62C105.048 31.88 105.868 32.12 106.868 32.36C108.888 32.9 109.788 33.16 109.908 34.34C109.908 35.32 109.008 36.16 107.228 36.16C105.968 36.16 104.808 35.78 103.768 35C103.588 34.86 103.348 34.78 103.088 34.78C102.468 34.78 101.988 35.28 101.988 35.9ZM118.93 37.2C118.93 36.7 118.59 36.32 118.05 36.32C117.91 36.32 117.71 36.38 117.53 36.38C116.95 36.38 116.61 35.94 116.61 35.24V30.18H117.77C118.27 30.18 118.69 29.76 118.69 29.26C118.69 28.76 118.27 28.34 117.77 28.34H116.61V26.64C116.61 26.06 116.13 25.58 115.57 25.58C114.99 25.58 114.51 26.06 114.51 26.64V28.34H113.71C113.21 28.34 112.79 28.76 112.79 29.26C112.79 29.76 113.21 30.18 113.71 30.18H114.51V35.76C114.51 37.36 115.37 38.24 116.99 38.24C117.53 38.24 117.99 38.16 118.37 38C118.71 37.86 118.93 37.6 118.93 37.2ZM119.877 33.16C119.877 35.98 121.837 38.24 124.837 38.24C127.857 38.24 129.817 35.98 129.817 33.16C129.817 30.36 127.857 28.1 124.837 28.1C121.837 28.1 119.877 30.38 119.877 33.16ZM127.637 33.16C127.637 34.06 127.377 34.84 126.877 35.46C126.377 36.08 125.697 36.38 124.837 36.38C123.977 36.38 123.297 36.08 122.797 35.46C122.297 34.84 122.057 34.06 122.057 33.16C122.057 32.26 122.297 31.52 122.797 30.9C123.297 30.28 123.977 29.96 124.837 29.96C125.697 29.96 126.377 30.28 126.877 30.9C127.377 31.52 127.637 32.26 127.637 33.16ZM137.322 29.16C137.322 28.6 137.022 28.18 136.462 28.18C136.322 28.18 136.142 28.22 135.902 28.3C135.282 28.48 134.582 29.06 134.042 29.76V29.28C134.042 28.7 133.562 28.22 132.982 28.22C132.422 28.22 131.942 28.7 131.942 29.28V37.06C131.942 37.64 132.422 38.12 133.002 38.12C133.562 38.12 134.042 37.64 134.042 37.06V31.42C134.442 30.78 135.442 30.26 136.242 30.16C136.942 30.06 137.322 29.66 137.322 29.16ZM143.176 28.1C140.356 28.1 138.276 30.36 138.276 33.16C138.276 36.2 140.456 38.24 143.336 38.24C144.636 38.24 145.736 37.92 146.676 37.3C146.936 37.12 147.056 36.88 147.056 36.6C147.056 36.14 146.676 35.76 146.216 35.76C146.036 35.76 145.876 35.8 145.756 35.88C145.096 36.28 144.276 36.52 143.556 36.52C141.796 36.52 140.636 35.38 140.476 33.86H146.696C147.496 33.86 147.936 33.5 147.936 32.88C147.936 30.3 146.016 28.1 143.176 28.1ZM140.456 32.38C140.556 31.02 141.516 29.82 143.176 29.82C144.976 29.82 145.856 31.14 145.896 32.38H140.456Z" fill="white"/>
<path d="M59.39 15.99C59.39 16.11 59.43 16.2 59.52 16.27C60.05 16.79 60.85 17.12 61.8 17.12C63.28 17.12 64.3 16.31 64.3 15.2C64.3 14.19 63.43 13.62 62.76 13.56C63.13 13.49 63.46 13.33 63.75 13.07C64.05 12.8 64.2 12.45 64.2 12.01C64.2 10.91 63.13 10.23 61.81 10.23C60.94 10.23 60.18 10.54 59.63 11.03C59.54 11.12 59.5 11.21 59.5 11.3C59.5 11.5 59.66 11.66 59.86 11.66C59.94 11.66 60.01 11.64 60.08 11.59C60.57 11.18 61.12 10.97 61.75 10.97C62.67 10.97 63.35 11.39 63.35 12.11C63.35 12.84 62.68 13.21 61.73 13.21H60.9C60.69 13.21 60.51 13.37 60.51 13.58C60.51 13.79 60.69 13.95 60.9 13.95H61.73C62.8 13.95 63.46 14.33 63.46 15.13C63.46 15.9 62.82 16.38 61.78 16.38C61.1 16.38 60.45 16.12 60 15.71C59.94 15.65 59.86 15.62 59.76 15.62C59.56 15.62 59.39 15.79 59.39 15.99ZM69.3598 13.68C69.3598 12.57 68.5998 12.05 67.4898 12.05C66.8098 12.05 66.2298 12.26 65.7498 12.68C65.6798 12.73 65.6198 12.84 65.6198 12.93C65.6198 13.1 65.7598 13.24 65.9298 13.24C65.9998 13.24 66.0598 13.22 66.1298 13.18C66.4998 12.85 66.8998 12.7 67.3898 12.7C68.1098 12.7 68.6098 13.08 68.6098 13.72V14.59C68.2298 14.15 67.6998 13.93 67.0098 13.93C66.1598 13.93 65.3198 14.49 65.3198 15.52C65.3198 16.54 66.1598 17.12 67.0098 17.12C67.6798 17.12 68.2398 16.89 68.6098 16.45V16.67C68.6098 16.87 68.7798 17.04 68.9798 17.04C69.1898 17.04 69.3598 16.87 69.3598 16.67V13.68ZM68.6098 15.98C68.3298 16.37 67.8298 16.58 67.2798 16.58C66.5898 16.58 66.0898 16.14 66.0898 15.53C66.0898 14.9 66.5898 14.47 67.2798 14.47C67.8298 14.47 68.3298 14.68 68.6098 15.07V15.98ZM70.8633 16.67C70.8633 16.87 71.0333 17.04 71.2433 17.04C71.4433 17.04 71.6133 16.87 71.6133 16.67V12.83H73.9533C74.1433 12.83 74.2933 12.67 74.2933 12.5C74.2933 12.33 74.1433 12.17 73.9533 12.17H71.3133C71.0233 12.17 70.8633 12.33 70.8633 12.61V16.67ZM79.7487 14.58C79.7487 13.02 78.8688 12.05 77.5988 12.05C76.9288 12.05 76.3288 12.38 75.9688 12.89V12.5C75.9688 12.3 75.7988 12.13 75.5988 12.13C75.3888 12.13 75.2188 12.3 75.2188 12.5V18.51C75.2188 18.71 75.3888 18.88 75.5988 18.88C75.7988 18.88 75.9688 18.71 75.9688 18.51V16.26C76.3688 16.81 76.9488 17.12 77.5988 17.12C78.8688 17.12 79.7487 16.13 79.7487 14.58ZM78.9588 14.58C78.9588 15.13 78.8188 15.58 78.5388 15.93C78.2588 16.28 77.8788 16.45 77.4087 16.45C76.8388 16.45 76.2388 16.11 75.9688 15.67V13.49C76.2388 13.06 76.8388 12.72 77.4087 12.72C77.8788 12.72 78.2588 12.89 78.5388 13.24C78.8188 13.59 78.9588 14.03 78.9588 14.58ZM81.0609 18.28C80.8609 18.28 80.7009 18.42 80.7009 18.61C80.7009 18.78 80.8309 18.93 81.0209 18.94C81.0709 18.95 81.1509 18.96 81.2409 18.96C81.9109 18.95 82.3809 18.66 82.6609 17.98L84.8809 12.66C84.9009 12.61 84.9109 12.56 84.9109 12.51C84.9109 12.3 84.7409 12.13 84.5309 12.13C84.3809 12.13 84.2309 12.23 84.1809 12.36L82.6609 16.13L81.1309 12.36C81.0809 12.23 80.9409 12.13 80.7809 12.13C80.5709 12.13 80.4109 12.3 80.4109 12.51C80.4109 12.55 80.4209 12.6 80.4409 12.65L82.2609 17.05L81.9409 17.78C81.7809 18.17 81.5709 18.29 81.2209 18.29L81.0609 18.28ZM85.5133 16.27C85.5133 16.39 85.5633 16.48 85.6533 16.54C86.1233 16.93 86.7133 17.12 87.4433 17.12C88.7333 17.12 89.5033 16.54 89.5033 15.71C89.5033 14.96 88.7933 14.57 88.2233 14.53C88.5233 14.49 88.7933 14.37 89.0333 14.16C89.2833 13.95 89.4033 13.68 89.4033 13.35C89.4033 12.55 88.6233 12.06 87.4233 12.06C86.7333 12.06 86.1533 12.26 85.7033 12.66C85.6333 12.72 85.5933 12.8 85.5933 12.9C85.5933 13.07 85.7333 13.21 85.9033 13.21C85.9633 13.21 86.0233 13.19 86.0833 13.14C86.4533 12.82 86.8533 12.67 87.4133 12.67C88.1233 12.67 88.6233 12.99 88.6233 13.44C88.6233 13.96 88.1233 14.25 87.3633 14.25H86.8133C86.6233 14.25 86.4833 14.38 86.4833 14.55C86.4833 14.74 86.6233 14.86 86.8133 14.86H87.3633C88.2633 14.86 88.7133 15.13 88.7133 15.66C88.7133 16.17 88.2333 16.5 87.4433 16.5C86.9133 16.5 86.4533 16.33 86.0533 15.99C86.0033 15.95 85.9333 15.93 85.8533 15.93C85.6633 15.93 85.5133 16.08 85.5133 16.27ZM90.7168 16.59C90.7168 16.84 90.9168 17.04 91.1668 17.04C91.3268 17.04 91.4668 16.96 91.5468 16.84L93.9868 13.24V16.67C93.9868 16.87 94.1568 17.04 94.3568 17.04C94.5668 17.04 94.7368 16.87 94.7368 16.67V12.59C94.7368 12.34 94.5168 12.13 94.2668 12.13C94.1068 12.13 93.9768 12.2 93.8768 12.33L91.4668 15.86V12.5C91.4668 12.3 91.2968 12.13 91.0968 12.13C90.8868 12.13 90.7168 12.3 90.7168 12.5V16.59ZM97.1144 16.67C97.1144 16.87 97.2844 17.04 97.4844 17.04C97.6944 17.04 97.8644 16.87 97.8644 16.67V12.83H98.9844C99.1744 12.83 99.3244 12.67 99.3244 12.5C99.3244 12.33 99.1744 12.17 98.9844 12.17H96.0044C95.8344 12.17 95.6744 12.31 95.6744 12.5C95.6744 12.67 95.8344 12.83 96.0044 12.83H97.1144V16.67ZM102.182 12.05C100.822 12.05 99.802 13.19 99.802 14.58C99.802 16.08 100.832 17.12 102.262 17.12C102.912 17.12 103.492 16.93 103.982 16.55C104.072 16.48 104.112 16.4 104.112 16.3C104.112 16.13 103.972 16 103.802 16C103.732 16 103.682 16.01 103.632 16.04C103.242 16.35 102.812 16.5 102.332 16.5C101.832 16.5 101.422 16.34 101.112 16.02C100.802 15.7 100.622 15.3 100.592 14.83H104.062C104.342 14.83 104.502 14.69 104.502 14.45C104.502 13.17 103.602 12.05 102.182 12.05ZM100.592 14.28C100.632 13.5 101.182 12.67 102.172 12.67C103.222 12.67 103.742 13.5 103.762 14.28H100.592ZM108.295 16.56C108.295 16.84 108.455 17 108.745 17H110.785C111.835 17 112.415 16.49 112.415 15.69C112.415 15.14 112.025 14.63 111.515 14.51C111.965 14.38 112.315 13.96 112.315 13.41C112.315 12.66 111.755 12.17 110.765 12.17H108.745C108.455 12.17 108.295 12.33 108.295 12.61V16.56ZM110.765 12.83C111.255 12.83 111.545 13.09 111.545 13.52C111.545 13.92 111.255 14.19 110.765 14.19H109.045V12.83H110.765ZM110.785 14.85C111.315 14.85 111.635 15.19 111.635 15.6C111.635 16.07 111.315 16.34 110.785 16.34H109.045V14.85H110.785Z" fill="white"/>
<path d="M40.5789 15.6969C41.3362 14.94 41.8951 14.1109 42.2557 13.2094C42.6043 12.3079 42.7786 11.4908 42.7786 10.7573C42.7786 10.7096 42.7755 10.6488 42.7695 10.577C42.7632 10.5052 42.7605 10.4455 42.7605 10.3967C42.7485 10.3606 42.7335 10.2945 42.7155 10.198C42.6975 10.1022 42.6825 10.0361 42.6704 10C40.5549 10.4928 39.0526 11.3823 38.1632 12.6685C37.2617 13.9663 36.7929 15.5109 36.7568 17.3019C37.5618 17.2294 38.1869 17.128 38.632 16.9957C39.2811 16.7787 39.9298 16.3463 40.5789 15.6969Z" fill="white"/>
<path d="M46.7085 29.6335C45.8791 28.4442 45.4644 27.104 45.4644 25.6129C45.4644 24.2549 45.8547 23.0111 46.6363 21.8809C47.0571 21.2682 47.7422 20.559 48.6918 19.7533C48.0668 18.9844 47.4417 18.3837 46.8167 17.9503C45.6867 17.1699 44.4066 16.7783 42.9765 16.7783C42.1231 16.7783 41.0834 16.9833 39.8573 17.3917C38.6793 17.8007 37.8199 18.0044 37.2793 18.0044C36.8706 18.0044 36.0412 17.8241 34.7911 17.4635C33.529 17.1029 32.4656 16.9226 31.6 16.9226C29.5326 16.9226 27.8257 17.788 26.4798 19.5192C25.1215 21.2742 24.4424 23.5216 24.4424 26.2619C24.4424 29.1705 25.3258 32.1932 27.0929 35.3308C28.8836 38.4437 30.6925 40 32.5196 40C33.1326 40 33.9256 39.7956 34.8993 39.3873C35.8729 38.9906 36.726 38.7923 37.4592 38.7923C38.2406 38.7923 39.1477 38.9846 40.1818 39.3689C41.2753 39.7536 42.1167 39.9456 42.7057 39.9456C44.2439 39.9456 45.7886 38.7679 47.3392 36.4123C48.3489 34.9101 49.0881 33.4073 49.5569 31.9051C48.4872 31.5809 47.5379 30.8236 46.7085 29.6335Z" fill="white"/>
</svg>
