<svg width="170" height="52" viewBox="0 0 170 52" fill="none" xmlns="http://www.w3.org/2000/svg">
<rect width="170" height="52" rx="4" fill="black"/>
<path d="M63.4528 32.08C63.4528 31.28 63.0128 30.84 62.2128 30.84H58.0528C57.4928 30.84 57.0128 31.3 57.0128 31.86C57.0128 32.44 57.4928 32.9 58.0528 32.9H61.1128V34.98C60.4128 35.62 59.2128 36.18 57.9528 36.18C55.3328 36.18 53.3528 34.1 53.3528 31.34C53.3528 28.56 55.3328 26.52 57.9528 26.52C59.1328 26.52 60.1528 26.98 60.9528 27.78C61.1728 28 61.4328 28.1 61.7328 28.1C62.3528 28.1 62.8128 27.6 62.8128 27.02C62.8128 26.72 62.7128 26.46 62.4928 26.24C61.2928 25.04 59.7728 24.44 57.9528 24.44C54.1128 24.38 50.8928 27.28 50.9528 31.34C50.8928 35.4 54.1128 38.3 57.9528 38.26C59.8128 38.26 61.4328 37.66 62.8128 36.46C63.2728 36.06 63.4528 35.58 63.4528 34.94V32.08ZM65.2288 33.16C65.2288 35.98 67.1888 38.24 70.1888 38.24C73.2088 38.24 75.1688 35.98 75.1688 33.16C75.1688 30.36 73.2088 28.1 70.1888 28.1C67.1888 28.1 65.2288 30.38 65.2288 33.16ZM72.9888 33.16C72.9888 34.06 72.7288 34.84 72.2288 35.46C71.7288 36.08 71.0488 36.38 70.1888 36.38C69.3288 36.38 68.6488 36.08 68.1488 35.46C67.6488 34.84 67.4087 34.06 67.4087 33.16C67.4087 32.26 67.6488 31.52 68.1488 30.9C68.6488 30.28 69.3288 29.96 70.1888 29.96C71.0488 29.96 71.7288 30.28 72.2288 30.9C72.7288 31.52 72.9888 32.26 72.9888 33.16ZM76.6936 33.16C76.6936 35.98 78.6536 38.24 81.6536 38.24C84.6736 38.24 86.6336 35.98 86.6336 33.16C86.6336 30.36 84.6736 28.1 81.6536 28.1C78.6536 28.1 76.6936 30.38 76.6936 33.16ZM84.4536 33.16C84.4536 34.06 84.1936 34.84 83.6936 35.46C83.1936 36.08 82.5136 36.38 81.6536 36.38C80.7936 36.38 80.1136 36.08 79.6136 35.46C79.1136 34.84 78.8736 34.06 78.8736 33.16C78.8736 32.26 79.1136 31.52 79.6136 30.9C80.1136 30.28 80.7936 29.96 81.6536 29.96C82.5136 29.96 83.1936 30.28 83.6936 30.9C84.1936 31.52 84.4536 32.26 84.4536 33.16ZM97.6384 29.28C97.6384 28.7 97.1584 28.22 96.5984 28.22C96.0184 28.22 95.5384 28.7 95.5384 29.28V29.68C94.7584 28.66 93.6584 28.1 92.4384 28.1C89.9584 28.1 88.1584 29.98 88.1584 33.06C88.1584 36.2 89.9584 38.02 92.4384 38.02C93.6584 38.02 94.7584 37.4 95.5384 36.42V37.58C95.5384 39.4 94.2784 40.2 92.6784 40.2C91.6984 40.2 90.8584 39.96 90.1984 39.5C90.0584 39.4 89.8784 39.34 89.6984 39.34C89.2184 39.34 88.8184 39.74 88.8184 40.22C88.8184 40.52 88.9384 40.76 89.1984 40.94C90.2184 41.66 91.2584 41.92 92.6784 41.92C94.0784 41.92 95.2584 41.58 96.1984 40.9C97.1584 40.22 97.6384 39.08 97.6384 37.5V29.28ZM95.5384 34.86C95.0584 35.58 94.0184 36.16 93.0584 36.16C91.3984 36.16 90.3384 34.92 90.3384 33.06C90.3384 31.2 91.3984 29.96 93.0584 29.96C94.0184 29.96 95.0584 30.54 95.5384 31.26V34.86ZM100.36 37.06C100.36 37.64 100.84 38.12 101.42 38.12C101.98 38.12 102.46 37.64 102.46 37.06V25.6C102.46 25.02 101.98 24.54 101.42 24.54C100.84 24.54 100.36 25.02 100.36 25.6V37.06ZM109.484 28.1C106.664 28.1 104.584 30.36 104.584 33.16C104.584 36.2 106.764 38.24 109.644 38.24C110.944 38.24 112.044 37.92 112.984 37.3C113.244 37.12 113.364 36.88 113.364 36.6C113.364 36.14 112.984 35.76 112.524 35.76C112.344 35.76 112.184 35.8 112.064 35.88C111.404 36.28 110.584 36.52 109.864 36.52C108.104 36.52 106.944 35.38 106.784 33.86H113.004C113.804 33.86 114.244 33.5 114.244 32.88C114.244 30.3 112.324 28.1 109.484 28.1ZM106.764 32.38C106.864 31.02 107.824 29.82 109.484 29.82C111.284 29.82 112.164 31.14 112.204 32.38H106.764ZM121.514 36.94C121.514 37.58 122.034 38.12 122.694 38.12C123.334 38.12 123.854 37.58 123.854 36.94V33.02H127.374C130.074 33.02 131.734 31.14 131.734 28.84C131.734 26.54 130.094 24.66 127.374 24.66H122.754C121.954 24.66 121.514 25.1 121.514 25.9V36.94ZM127.054 26.72C128.394 26.72 129.334 27.56 129.334 28.84C129.334 30.12 128.394 30.96 127.054 30.96H123.854V26.72H127.054ZM133.622 37.06C133.622 37.64 134.102 38.12 134.682 38.12C135.242 38.12 135.722 37.64 135.722 37.06V25.6C135.722 25.02 135.242 24.54 134.682 24.54C134.102 24.54 133.622 25.02 133.622 25.6V37.06ZM146.446 31.6C146.446 29.18 144.806 28.1 142.426 28.1C141.086 28.1 139.886 28.48 138.866 29.24C138.646 29.38 138.506 29.66 138.506 29.92C138.506 30.38 138.886 30.76 139.346 30.76C139.526 30.76 139.686 30.72 139.826 30.62C140.526 30.14 141.266 29.9 142.086 29.9C143.446 29.9 144.346 30.58 144.346 31.7V33.14C143.646 32.34 142.526 31.9 141.226 31.9C139.546 31.9 137.866 32.92 137.866 35.04C137.866 37.1 139.566 38.24 141.226 38.24C142.506 38.24 143.626 37.78 144.346 36.96V37.06C144.346 37.64 144.826 38.12 145.386 38.12C145.966 38.12 146.446 37.64 146.446 37.06V31.6ZM144.346 35.8C143.866 36.44 143.006 36.8 142.046 36.8C140.846 36.8 139.986 36.12 139.986 35.08C139.986 34.04 140.846 33.34 142.046 33.34C143.006 33.34 143.866 33.7 144.346 34.34V35.8ZM149.769 40.06C149.229 40.06 148.769 40.48 148.769 40.98C148.769 41.48 149.149 41.84 149.629 41.9C149.709 41.92 149.809 41.92 149.929 41.92C151.529 41.9 152.609 41.32 153.249 39.74L157.369 29.66C157.429 29.5 157.449 29.36 157.449 29.26C157.449 28.68 156.989 28.22 156.409 28.22C155.989 28.22 155.569 28.5 155.429 28.88L152.829 35.58L150.229 28.88C150.089 28.5 149.669 28.22 149.249 28.22C148.689 28.22 148.229 28.68 148.229 29.26C148.229 29.4 148.249 29.52 148.289 29.64L151.729 38.12L151.249 39.22C150.989 39.84 150.569 40.06 149.869 40.06H149.769Z" fill="white"/>
<path d="M56.89 16.71C56.89 16.42 56.73 16.26 56.44 16.26H56.12V10.77C56.12 10.49 55.96 10.33 55.68 10.33H52.59C52.31 10.33 52.15 10.47 52.12 10.75L51.98 12.01C51.73 14.29 51.32 15.71 50.77 16.26H50.64C50.39 16.26 50.26 16.43 50.26 16.71V17.9C50.26 18.1 50.43 18.27 50.63 18.27C50.83 18.27 51 18.1 51 17.9V17H56.15V17.9C56.15 18.1 56.32 18.27 56.52 18.27C56.72 18.27 56.89 18.1 56.89 17.9V16.71ZM55.29 16.26H51.67C51.88 16.01 52.08 15.56 52.26 14.93C52.44 14.29 52.6 13.33 52.73 12.06L52.83 11.07H55.29V16.26ZM57.638 14.58C57.638 15.99 58.588 17.12 60.028 17.12C61.468 17.12 62.418 15.99 62.418 14.58C62.418 13.17 61.468 12.05 60.028 12.05C58.588 12.05 57.638 13.17 57.638 14.58ZM61.628 14.58C61.628 15.59 61.028 16.45 60.028 16.45C59.018 16.45 58.418 15.59 58.418 14.58C58.418 13.58 59.018 12.72 60.028 12.72C61.028 12.72 61.628 13.58 61.628 14.58ZM65.7706 12.05C64.3506 12.05 63.3606 13.15 63.3606 14.58C63.3606 16.03 64.3506 17.12 65.7706 17.12C66.4406 17.12 66.9206 16.91 67.3206 16.52C67.3906 16.47 67.4306 16.36 67.4306 16.27C67.4306 16.08 67.2806 15.93 67.0906 15.93C67.0006 15.93 66.9206 15.96 66.8606 16.02C66.5806 16.31 66.2306 16.45 65.8106 16.45C64.8006 16.45 64.1406 15.67 64.1406 14.58C64.1406 13.49 64.8006 12.72 65.8106 12.72C66.2306 12.72 66.5806 12.86 66.8706 13.15C66.9306 13.21 67.0006 13.24 67.0906 13.24C67.2806 13.24 67.4306 13.09 67.4306 12.9C67.4306 12.81 67.3906 12.72 67.3206 12.65C66.9206 12.26 66.4406 12.05 65.7706 12.05ZM69.4718 16.67C69.4718 16.87 69.6418 17.04 69.8418 17.04C70.0518 17.04 70.2218 16.87 70.2218 16.67V12.83H71.3418C71.5318 12.83 71.6818 12.67 71.6818 12.5C71.6818 12.33 71.5318 12.17 71.3418 12.17H68.3618C68.1918 12.17 68.0318 12.31 68.0318 12.5C68.0318 12.67 68.1918 12.83 68.3618 12.83H69.4718V16.67ZM72.7152 18.28C72.5152 18.28 72.3552 18.42 72.3552 18.61C72.3552 18.78 72.4852 18.93 72.6752 18.94C72.7252 18.95 72.8052 18.96 72.8952 18.96C73.5652 18.95 74.0352 18.66 74.3152 17.98L76.5352 12.66C76.5552 12.61 76.5652 12.56 76.5652 12.51C76.5652 12.3 76.3952 12.13 76.1852 12.13C76.0352 12.13 75.8852 12.23 75.8352 12.36L74.3152 16.13L72.7852 12.36C72.7352 12.23 72.5952 12.13 72.4352 12.13C72.2252 12.13 72.0652 12.3 72.0652 12.51C72.0652 12.55 72.0752 12.6 72.0952 12.65L73.9152 17.05L73.5952 17.78C73.4352 18.17 73.2252 18.29 72.8752 18.29L72.7152 18.28ZM80.7876 16.67C80.7876 16.87 80.9576 17.04 81.1576 17.04C81.3676 17.04 81.5376 16.87 81.5376 16.67V12.61C81.5376 12.33 81.3776 12.17 81.0876 12.17H77.9676C77.6776 12.17 77.5176 12.33 77.5176 12.61V16.67C77.5176 16.87 77.6876 17.04 77.8976 17.04C78.0976 17.04 78.2676 16.87 78.2676 16.67V12.83H80.7876V16.67ZM83.0352 16.67C83.0352 16.87 83.2052 17.04 83.4152 17.04C83.6152 17.04 83.7852 16.87 83.7852 16.67V14.84H86.3052V16.67C86.3052 16.87 86.4752 17.04 86.6752 17.04C86.8852 17.04 87.0552 16.87 87.0552 16.67V12.5C87.0552 12.3 86.8852 12.13 86.6752 12.13C86.4752 12.13 86.3052 12.3 86.3052 12.5V14.18H83.7852V12.5C83.7852 12.3 83.6152 12.13 83.4152 12.13C83.2052 12.13 83.0352 12.3 83.0352 12.5V16.67ZM88.2727 14.58C88.2727 15.99 89.2227 17.12 90.6627 17.12C92.1027 17.12 93.0527 15.99 93.0527 14.58C93.0527 13.17 92.1027 12.05 90.6627 12.05C89.2227 12.05 88.2727 13.17 88.2727 14.58ZM92.2627 14.58C92.2627 15.59 91.6627 16.45 90.6627 16.45C89.6527 16.45 89.0527 15.59 89.0527 14.58C89.0527 13.58 89.6527 12.72 90.6627 12.72C91.6627 12.72 92.2627 13.58 92.2627 14.58ZM96.8535 16.56C96.8535 16.84 97.0135 17 97.3035 17H99.3435C100.394 17 100.974 16.49 100.974 15.69C100.974 15.14 100.584 14.63 100.074 14.51C100.524 14.38 100.874 13.96 100.874 13.41C100.874 12.66 100.314 12.17 99.3235 12.17H97.3035C97.0135 12.17 96.8535 12.33 96.8535 12.61V16.56ZM99.3235 12.83C99.8135 12.83 100.104 13.09 100.104 13.52C100.104 13.92 99.8135 14.19 99.3235 14.19H97.6035V12.83H99.3235ZM99.3435 14.85C99.8735 14.85 100.194 15.19 100.194 15.6C100.194 16.07 99.8735 16.34 99.3435 16.34H97.6035V14.85H99.3435Z" fill="white"/>
<path d="M38.9772 23.7506L33.8964 20.8164L26.9355 26.0174L33.8963 31.2184L38.9943 28.2741C39.7892 27.7912 40.2636 26.9473 40.2636 26.0175C40.2636 25.0877 39.7892 24.2439 38.9772 23.7506Z" fill="#FFCB00"/>
<path d="M28.6953 26.0177C28.6877 26.0275 22.5407 33.9308 22.5357 33.9372L14.5283 40.2434C14.0354 39.7506 13.7363 39.082 13.7363 38.3427V13.6491C13.7363 12.9101 14.0354 12.2412 14.5283 11.7485L22.5357 18.0983C22.5407 18.1047 28.6877 26.0079 28.6953 26.0177Z" fill="#00D2FF"/>
<path d="M33.9046 20.8083L28.6953 26.0176L14.5283 11.7484C14.7042 11.59 14.8803 11.4668 15.0739 11.3436C15.9186 10.8685 16.9218 10.886 17.749 11.3965L26.9355 16.7958L33.9046 20.8083Z" fill="#00F076"/>
<path d="M33.9046 31.2268L26.9355 35.2393L17.7314 40.6128C17.309 40.8592 16.8514 40.9999 16.3762 40.9999C15.9362 40.9999 15.4963 40.8768 15.0739 40.648C14.8803 40.5248 14.7042 40.4016 14.5283 40.2433L28.6953 26.0176L33.9046 31.2268Z" fill="#FE3945"/>
</svg>
