<svg width="20" height="18" viewBox="0 0 20 18" fill="none" xmlns="http://www.w3.org/2000/svg">
<path d="M18.9718 7.08761L9.8822 0.101026C9.70692 -0.0336754 9.4688 -0.0336754 9.29359 0.101026L0.20395 7.08761C-0.0180679 7.25829 -0.0663067 7.58557 0.0962745 7.81864C0.258856 8.05172 0.570648 8.10228 0.792629 7.93168L9.58786 1.17129L18.3831 7.93164C18.4718 7.99986 18.5748 8.03269 18.677 8.03269C18.8304 8.03269 18.9818 7.95857 19.0794 7.8186C19.242 7.58557 19.1938 7.25829 18.9718 7.08761Z" fill="#54616C"/>
<path d="M16.5637 8.05005C16.2886 8.05005 16.0655 8.28423 16.0655 8.5731V16.8987H12.0797V12.354C12.0797 10.9119 10.962 9.7386 9.58836 9.7386C8.21467 9.7386 7.09702 10.9119 7.09702 12.354V16.8987H3.11121V8.57314C3.11121 8.28427 2.8881 8.05009 2.61298 8.05009C2.33785 8.05009 2.11475 8.28427 2.11475 8.57314V17.4218C2.11475 17.7106 2.33785 17.9448 2.61298 17.9448H7.59525C7.85726 17.9448 8.07168 17.7323 8.09153 17.4625C8.09273 17.4503 8.09348 17.4369 8.09348 17.4218V12.3541C8.09348 11.4887 8.76406 10.7847 9.58836 10.7847C10.4126 10.7847 11.0832 11.4888 11.0832 12.3541V17.4218C11.0832 17.4368 11.084 17.45 11.0852 17.462C11.1048 17.732 11.3193 17.9448 11.5815 17.9448H16.5637C16.8389 17.9448 17.062 17.7106 17.062 17.4218V8.57314C17.0619 8.28423 16.8389 8.05005 16.5637 8.05005Z" fill="#54616C"/>
</svg>
