<svg width="44" height="41" viewBox="0 0 44 41" fill="none" xmlns="http://www.w3.org/2000/svg">
<path d="M37.6195 40.1864H26.1637C25.7477 40.1864 25.41 39.8487 25.41 39.4327V26.2489H18.5898V39.4327C18.5898 39.8487 18.2521 40.1864 17.8361 40.1864H6.38033C5.96433 40.1864 5.62671 39.8487 5.62671 39.4327V18.8822C5.62671 18.4662 5.96433 18.1286 6.38033 18.1286C6.79633 18.1286 7.13395 18.4662 7.13395 18.8822V38.6791H17.0825V25.4953C17.0825 25.0793 17.4201 24.7416 17.8361 24.7416H26.1637C26.5797 24.7416 26.9173 25.0793 26.9173 25.4953V38.6791H36.8659V18.8822C36.8659 18.4662 37.2035 18.1286 37.6195 18.1286C38.0355 18.1286 38.3731 18.4662 38.3731 18.8822V39.4327C38.3731 39.8487 38.0355 40.1864 37.6195 40.1864Z" fill="#DA2229"/>
<path d="M42.7631 18.3698C42.6004 18.3698 42.4361 18.317 42.2981 18.2092L22.0001 2.2754L1.70203 18.2092C1.37496 18.4662 0.90093 18.409 0.643945 18.0819C0.38696 17.7548 0.444235 17.2808 0.771307 17.0238L21.5351 0.724441C21.8087 0.509659 22.1923 0.509659 22.4658 0.724441L43.2296 17.0238C43.5567 17.2808 43.614 17.7548 43.357 18.0819C43.2078 18.271 42.9862 18.3698 42.7631 18.3698Z" fill="#DA2229"/>
</svg>
