<svg width="80" height="80" viewBox="0 0 80 80" fill="none" xmlns="http://www.w3.org/2000/svg">
<path d="M40 80C62.0914 80 80 62.0914 80 40C80 17.9086 62.0914 0 40 0C17.9086 0 0 17.9086 0 40C0 62.0914 17.9086 80 40 80Z" fill="#DA2229"/>
<path d="M55.6195 57.1864H44.1637C43.7477 57.1864 43.41 56.8487 43.41 56.4327V43.2489H36.5898V56.4327C36.5898 56.8487 36.2521 57.1864 35.8361 57.1864H24.3803C23.9643 57.1864 23.6267 56.8487 23.6267 56.4327V35.8822C23.6267 35.4662 23.9643 35.1286 24.3803 35.1286C24.7963 35.1286 25.134 35.4662 25.134 35.8822V55.6791H35.0825V42.4953C35.0825 42.0793 35.4201 41.7416 35.8361 41.7416H44.1637C44.5797 41.7416 44.9173 42.0793 44.9173 42.4953V55.6791H54.8659V35.8822C54.8659 35.4662 55.2035 35.1286 55.6195 35.1286C56.0355 35.1286 56.3731 35.4662 56.3731 35.8822V56.4327C56.3731 56.8487 56.0355 57.1864 55.6195 57.1864Z" fill="white"/>
<path d="M60.7631 35.3698C60.6004 35.3698 60.4361 35.317 60.2981 35.2092L40.0001 19.2754L19.702 35.2092C19.375 35.4662 18.9009 35.409 18.6439 35.0819C18.387 34.7548 18.4442 34.2808 18.7713 34.0238L39.5351 17.7244C39.8087 17.5097 40.1923 17.5097 40.4658 17.7244L61.2296 34.0238C61.5567 34.2808 61.614 34.7548 61.357 35.0819C61.2078 35.271 60.9862 35.3698 60.7631 35.3698Z" fill="white"/>
</svg>
