<svg width="80" height="80" viewBox="0 0 80 80" fill="none" xmlns="http://www.w3.org/2000/svg">
<circle cx="40" cy="40" r="40" fill="#DA2128"/>
<path d="M59.2678 34.55L41.0886 20.4329C40.7381 20.1607 40.2618 20.1607 39.9114 20.4329L21.7321 34.55C21.2881 34.8948 21.1916 35.5561 21.5168 36.0271C21.8419 36.498 22.4655 36.6002 22.9095 36.2555L40.4999 22.5955L58.0904 36.2554C58.2678 36.3933 58.4739 36.4596 58.6782 36.4596C58.9851 36.4596 59.2878 36.3098 59.483 36.027C59.8083 35.5561 59.7118 34.8948 59.2678 34.55Z" fill="white"/>
<path d="M54.4506 36.4949C53.9004 36.4949 53.4542 36.968 53.4542 37.5517V54.3741H45.4826V45.1914C45.4826 42.2773 43.2473 39.9067 40.5 39.9067C37.7526 39.9067 35.5173 42.2775 35.5173 45.1914V54.3741H27.5457V37.5518C27.5457 36.9681 27.0994 36.495 26.5492 36.495C25.9989 36.495 25.5527 36.9681 25.5527 37.5518V55.4311C25.5527 56.0147 25.9989 56.4879 26.5492 56.4879H36.5137C37.0378 56.4879 37.4666 56.0585 37.5063 55.5134C37.5087 55.4887 37.5102 55.4616 37.5102 55.4311V45.1914C37.5102 43.4429 38.8514 42.0205 40.5 42.0205C42.1485 42.0205 43.4897 43.443 43.4897 45.1914V55.4311C43.4897 55.4615 43.4912 55.488 43.4936 55.5124C43.5329 56.058 43.9618 56.4879 44.4862 56.4879H54.4507C55.001 56.4879 55.4472 56.0147 55.4472 55.4311V37.5518C55.4471 36.968 55.001 36.4949 54.4506 36.4949Z" fill="white"/>
</svg>
