<svg width="35" height="35" viewBox="0 0 35 35" fill="none" xmlns="http://www.w3.org/2000/svg">
<path d="M22.2554 18.2031C22.2554 19.5022 21.7673 20.748 20.8984 21.6666C20.0294 22.5851 18.8509 23.1012 17.6221 23.1012C16.3932 23.1012 15.2147 22.5851 14.3457 21.6666C13.4768 20.748 12.9887 19.5022 12.9887 18.2031V6.77426C12.9887 5.47521 13.4768 4.22937 14.3457 3.3108C15.2147 2.39223 16.3932 1.87618 17.6221 1.87618C18.8509 1.87618 20.0294 2.39223 20.8984 3.3108C21.7673 4.22937 22.2554 5.47521 22.2554 6.77426V18.2031ZM17.6221 0.553345C16.0613 0.553345 14.5645 1.20876 13.4609 2.37541C12.3573 3.54206 11.7373 5.12437 11.7373 6.77426V18.2031C11.7373 19.853 12.3573 21.4353 13.4609 22.602C14.5645 23.7686 16.0613 24.424 17.6221 24.424C19.1828 24.424 20.6796 23.7686 21.7832 22.602C22.8868 21.4353 23.5068 19.853 23.5068 18.2031V6.77426C23.5068 5.95732 23.3546 5.14838 23.0588 4.39362C22.7631 3.63886 22.3296 2.95308 21.7832 2.37541C21.2367 1.79774 20.588 1.33951 19.874 1.02688C19.1601 0.714254 18.3948 0.553345 17.6221 0.553345" fill="#DA2128"/>
<path d="M18.2076 30.478H17.0802V27.308C17.2792 27.3199 17.4787 27.3199 17.6777 27.308C17.873 27.3201 18.0687 27.3201 18.2639 27.308L18.2076 30.478ZM21.2852 33.1237H13.9462C14.0776 32.7334 14.3209 32.3962 14.6422 32.1591C14.9635 31.922 15.3468 31.7967 15.7387 31.8009H19.5153C19.9033 31.8017 20.2816 31.9292 20.5984 32.166C20.9152 32.4028 21.1551 32.7373 21.2852 33.1237ZM25.6368 17.5356C25.4694 17.5356 25.3088 17.606 25.1904 17.7311C25.072 17.8563 25.0055 18.026 25.0055 18.203C24.9309 20.2221 24.1197 22.1322 22.742 23.5328C21.3643 24.9334 19.5271 25.7157 17.6157 25.7157C15.7043 25.7157 13.8672 24.9334 12.4895 23.5328C11.1118 22.1322 10.3006 20.2221 10.226 18.203C10.226 18.1154 10.2096 18.0286 10.1779 17.9476C10.1462 17.8667 10.0997 17.7931 10.0411 17.7311C9.98243 17.6691 9.91284 17.62 9.83624 17.5864C9.75965 17.5529 9.67756 17.5356 9.59465 17.5356C9.42918 17.5388 9.27148 17.6105 9.15551 17.7353C9.03955 17.8601 8.97458 18.0281 8.97461 18.203C8.97768 20.2812 9.64879 22.2965 10.8778 23.9184C12.1069 25.5403 13.8209 26.6725 15.7387 27.1292V30.478C15.3267 30.4764 14.9185 30.5611 14.5376 30.727C14.1567 30.8929 13.8106 31.1369 13.5193 31.4449C13.228 31.7528 12.9972 32.1187 12.8402 32.5214C12.6832 32.924 12.6032 33.3556 12.6047 33.7911C12.6047 33.9649 12.67 34.1316 12.7863 34.2546C12.9025 34.3775 13.0603 34.4465 13.2247 34.4465H22.0293C22.1948 34.4466 22.3537 34.3779 22.4717 34.2553C22.5898 34.1327 22.6576 33.966 22.6606 33.7911C22.6606 32.9124 22.3304 32.0697 21.7427 31.4484C21.1549 30.8271 20.3578 30.478 19.5266 30.478V27.1292C21.4444 26.6725 23.1584 25.5403 24.3874 23.9184C25.6165 22.2965 26.2876 20.2812 26.2906 18.203C26.2906 18.026 26.2241 17.8563 26.1057 17.7311C25.9873 17.606 25.8268 17.5356 25.6593 17.5356" fill="#54616C"/>
<path d="M17.6208 21.6353C18.0471 21.6353 18.4693 21.5465 18.8632 21.374C19.2572 21.2015 19.6151 20.9487 19.9166 20.63C20.2181 20.3113 20.4572 19.9329 20.6204 19.5165C20.7835 19.1001 20.8675 18.6538 20.8675 18.203C20.869 18.1159 20.8541 18.0294 20.8236 17.9485C20.7931 17.8676 20.7477 17.794 20.69 17.7318C20.6322 17.6697 20.5634 17.6203 20.4874 17.5867C20.4114 17.553 20.3299 17.5356 20.2475 17.5356C20.08 17.5356 19.9195 17.606 19.8011 17.7311C19.6827 17.8563 19.6162 18.026 19.6162 18.203C19.6162 18.7625 19.4059 19.299 19.0317 19.6946C18.6575 20.0902 18.15 20.3124 17.6208 20.3124C17.5316 20.2997 17.4408 20.3074 17.3546 20.3348C17.2684 20.3622 17.1888 20.4088 17.121 20.4715C17.0532 20.5341 16.9989 20.6113 16.9617 20.698C16.9245 20.7846 16.9053 20.8787 16.9053 20.9738C16.9053 21.069 16.9245 21.1631 16.9617 21.2497C16.9989 21.3363 17.0532 21.4136 17.121 21.4762C17.1888 21.5389 17.2684 21.5855 17.3546 21.6129C17.4408 21.6403 17.5316 21.6479 17.6208 21.6353Z" fill="#DA2128"/>
<path d="M20.2475 16.5705C20.412 16.5705 20.5697 16.5015 20.686 16.3785C20.8022 16.2556 20.8676 16.0889 20.8676 15.9151C20.8664 15.7378 20.802 15.5675 20.6872 15.4384C20.5691 15.3177 20.4117 15.2495 20.2475 15.2477C20.166 15.2473 20.0852 15.264 20.0097 15.2967C19.9343 15.3294 19.8657 15.3776 19.8079 15.4384C19.7475 15.5003 19.6994 15.5744 19.6665 15.6563C19.6336 15.7381 19.6165 15.8261 19.6162 15.9151C19.6167 16.0022 19.634 16.0884 19.6669 16.1682C19.6999 16.2481 19.7478 16.3201 19.8079 16.3798C19.8657 16.4406 19.9343 16.4888 20.0097 16.5215C20.0852 16.5542 20.166 16.5709 20.2475 16.5705Z" fill="#DA2128"/>
</svg>
