<svg width="39" height="37" viewBox="0 0 39 37" fill="none" xmlns="http://www.w3.org/2000/svg">
<path d="M31.7749 18.3541L16.9779 6.73124C16.6926 6.50715 16.3049 6.50715 16.0197 6.73124L1.22264 18.3541C0.861212 18.638 0.782684 19.1825 1.04735 19.5702C1.31202 19.958 1.81959 20.0421 2.18095 19.7583L16.4988 8.51172L30.8166 19.7582C30.961 19.8717 31.1287 19.9263 31.2951 19.9263C31.5448 19.9263 31.7912 19.803 31.9501 19.5702C32.2149 19.1825 32.1363 18.638 31.7749 18.3541Z" fill="#54616C"/>
<path d="M27.8555 19.9554C27.4076 19.9554 27.0445 20.345 27.0445 20.8256V34.6757H20.556V27.1154C20.556 24.7163 18.7366 22.7645 16.5003 22.7645C14.2641 22.7645 12.4447 24.7164 12.4447 27.1154V34.6758H5.95613V20.8256C5.95613 20.3451 5.59294 19.9555 5.14506 19.9555C4.69718 19.9555 4.33398 20.3451 4.33398 20.8256V35.546C4.33398 36.0265 4.69718 36.4161 5.14506 36.4161H13.2557C13.6823 36.4161 14.0313 36.0626 14.0636 35.6137C14.0656 35.5934 14.0668 35.5711 14.0668 35.546V27.1155C14.0668 25.6759 15.1585 24.5048 16.5003 24.5048C17.8422 24.5048 18.9338 25.676 18.9338 27.1155V35.546C18.9338 35.571 18.9351 35.5929 18.937 35.6129C18.969 36.0621 19.3181 36.4161 19.7449 36.4161H27.8556C28.3035 36.4161 28.6667 36.0265 28.6667 35.546V20.8256C28.6666 20.345 28.3035 19.9554 27.8555 19.9554Z" fill="#DA2128"/>
<path d="M25.167 3.59012L23.5744 5.61791C23.3674 5.88152 23.409 6.26929 23.6673 6.48293C23.9256 6.69658 24.3037 6.65598 24.5107 6.39237L26.1033 4.36458C26.3103 4.10097 26.2687 3.7132 26.0104 3.49956C25.7521 3.28591 25.3748 3.32643 25.167 3.59012Z" fill="#54616C"/>
<path d="M34.9571 10.5415L33.3645 12.5693C33.1574 12.8329 33.1991 13.2207 33.4573 13.4343C33.7156 13.648 34.0937 13.6074 34.3007 13.3438L35.8933 11.316C36.1004 11.0524 36.0587 10.6646 35.8005 10.451C35.5422 10.2373 35.1648 10.2778 34.9571 10.5415Z" fill="#54616C"/>
<path d="M29.167 13.4829L30.7596 11.4551C30.9666 11.1915 30.925 10.8037 30.6667 10.5901C30.4084 10.3764 30.0303 10.417 29.8233 10.6806L28.2307 12.7084C28.0236 12.972 28.0653 13.3598 28.3236 13.5734C28.5818 13.7871 28.9592 13.7466 29.167 13.4829Z" fill="#54616C"/>
<path d="M26.8359 9.93924L28.4285 7.91146C28.6355 7.64785 28.5939 7.26008 28.3356 7.04643C28.0773 6.83279 27.6993 6.87339 27.4922 7.137L25.8996 9.16478C25.6926 9.42839 25.7342 9.81616 25.9925 10.0298C26.2508 10.2435 26.6281 10.2029 26.8359 9.93924Z" fill="#54616C"/>
<path d="M21.2321 3.60539C20.9738 3.39175 20.5957 3.43235 20.3887 3.69596L18.7961 5.72374C18.5891 5.98735 18.6307 6.37512 18.889 6.58877C19.1473 6.80241 19.5253 6.76181 19.7324 6.4982L21.325 4.47042C21.532 4.20681 21.4905 3.8198 21.2321 3.60539Z" fill="#54616C"/>
</svg>
