<svg width="35" height="35" viewBox="0 0 35 35" fill="none" xmlns="http://www.w3.org/2000/svg">
<path d="M27.4268 13.4693C27.356 8.30181 23.1304 4.11957 17.9464 4.11957C15.6404 4.11957 13.4188 4.95842 11.6909 6.48163C10.1488 7.841 9.09382 9.6576 8.67605 11.6521C8.64553 11.6517 8.61528 11.6515 8.5851 11.6515C4.15614 11.6515 0.552734 15.2548 0.552734 19.6838C0.552734 24.1129 4.15614 27.7162 8.58516 27.7162H14.195C14.5941 27.7162 14.9178 27.3926 14.9178 26.9934C14.9178 26.5941 14.5941 26.2706 14.195 26.2706H8.58516C4.95316 26.2706 1.99836 23.3158 1.99836 19.6838C1.99836 16.0519 4.95316 13.0971 8.58516 13.0971C8.77866 13.0971 8.98321 13.1075 9.2106 13.1289C9.596 13.165 9.94202 12.8908 9.99451 12.5069C10.2548 10.5991 11.1967 8.84436 12.6469 7.56602C14.1106 6.27569 15.9926 5.56513 17.9464 5.56513C22.3773 5.56513 25.982 9.16992 25.982 13.6008C25.982 13.7603 25.9702 13.9248 25.9577 14.0989L25.9523 14.1729C25.9373 14.3855 26.0169 14.594 26.1699 14.7424C26.3228 14.8909 26.5332 14.9643 26.7456 14.943C26.9379 14.9236 27.1318 14.9139 27.3221 14.9139C30.453 14.9139 33.0004 17.4612 33.0004 20.5922C33.0004 23.7232 30.4531 26.2704 27.3221 26.2704H21.4231C21.024 26.2704 20.7003 26.594 20.7003 26.9933C20.7003 27.3925 21.024 27.7161 21.4231 27.7161H27.3221C31.2502 27.7161 34.446 24.5204 34.446 20.5922C34.4459 16.6993 31.3069 13.5255 27.4268 13.4693Z" fill="#DA2128"/>
<path d="M17.9479 7.51666C14.9254 7.51666 12.3381 9.77539 11.9296 12.7706C11.8756 13.1661 12.1526 13.5305 12.5481 13.5845C12.5812 13.589 12.6141 13.5912 12.6466 13.5912C13.0024 13.5912 13.3125 13.3284 13.3618 12.9661C13.6731 10.6836 15.6447 8.96229 17.9478 8.96229C18.347 8.96229 18.6706 8.63871 18.6706 8.23948C18.6707 7.8403 18.347 7.51666 17.9479 7.51666Z" fill="#54616C"/>
<path d="M21.2348 21.74L18.6056 19.3914C18.1523 18.9862 17.4685 18.9863 17.0151 19.3913L14.3858 21.7401C14.0881 22.006 14.0624 22.463 14.3283 22.7607C14.5942 23.0584 15.0511 23.0843 15.3489 22.8183L17.0875 21.2651V30.1575C17.0875 30.5568 17.4111 30.8803 17.8103 30.8803C18.2095 30.8803 18.5332 30.5568 18.5332 30.1575V21.265L20.2718 22.8182C20.4097 22.9414 20.5817 23.002 20.7531 23.002C20.9518 23.002 21.1496 22.9206 21.2925 22.7607C21.5583 22.4629 21.5325 22.006 21.2348 21.74Z" fill="#54616C"/>
</svg>
