<svg width="38" height="35" viewBox="0 0 38 35" fill="none" xmlns="http://www.w3.org/2000/svg">
<g clip-path="url(#clip0)">
<path d="M37.8702 21.2576C37.8228 21.1918 37.7629 21.1359 37.6937 21.0931C37.6246 21.0502 37.5476 21.0214 37.4673 21.0081C37.3869 20.9948 37.3046 20.9973 37.2253 21.0156C37.1459 21.0338 37.0709 21.0674 37.0046 21.1145C36.3842 21.4866 35.7639 21.8731 35.1291 22.1881C34.1386 22.6517 33.0909 22.9838 32.0129 23.1758C30.7235 23.4141 29.4046 23.4528 28.1033 23.2903C27.007 23.1526 25.9345 22.8685 24.915 22.4457C23.6286 21.9245 22.4389 21.1939 21.3949 20.2842C20.6133 19.5998 19.916 18.8262 19.3174 17.9795C18.5104 16.827 17.9011 15.5501 17.5141 14.2003C16.778 11.5171 16.9607 8.66723 18.0334 6.0981L18.2498 5.53981L18.3364 5.4253C18.4951 5.139 18.6393 4.8527 18.798 4.58071C19.597 3.25555 20.6279 2.08243 21.8421 1.1165C21.9082 1.06729 21.9638 1.00544 22.0056 0.934607C22.0473 0.863769 22.0743 0.785367 22.0851 0.704011C22.0958 0.622654 22.0901 0.539986 22.0682 0.460866C22.0463 0.381746 22.0086 0.307772 21.9575 0.243292C21.9068 0.176594 21.8429 0.120845 21.7697 0.0794445C21.6965 0.0380438 21.6157 0.0118578 21.532 0.00248232C21.4483 -0.00689314 21.3635 0.000738305 21.2829 0.0249116C21.2023 0.0490848 21.1275 0.0892937 21.063 0.143088C20.7312 0.415071 20.385 0.70137 20.0676 1.00198C19.2703 1.75483 18.5678 2.60081 17.9757 3.52141C17.7449 3.87928 17.5573 4.26579 17.3409 4.63797C17.1245 5.01016 17.1534 4.98153 17.0813 5.15331C16.4555 6.45861 16.0463 7.85559 15.8694 9.29032C15.7323 10.4027 15.7323 11.5276 15.8694 12.64C16.0179 13.8449 16.3436 15.0217 16.836 16.1329C17.1438 16.8224 17.4956 17.4918 17.8892 18.1369C18.7251 19.4906 19.8002 20.6836 21.063 21.6584C22.2982 22.6335 23.6942 23.389 25.1891 23.8916C26.0515 24.1855 26.9404 24.3965 27.8436 24.5214C29.1218 24.6923 30.4173 24.6923 31.6955 24.5214C33.0805 24.3329 34.4254 23.9219 35.6773 23.3046C36.3554 22.9754 37.0046 22.5746 37.6538 22.1881C37.7286 22.1434 37.7932 22.0836 37.8431 22.0126C37.8931 21.9415 37.9274 21.8607 37.9437 21.7756C37.9601 21.6905 37.9581 21.6029 37.938 21.5185C37.9178 21.4342 37.88 21.355 37.8269 21.2862" fill="#54616C"/>
<path d="M7.7327 24.1492L10.618 26.1677C11.0546 26.4773 11.3501 26.9455 11.4404 27.4703C11.6856 28.6298 11.9453 29.775 12.205 30.9202C12.3637 31.6073 12.5224 32.3517 12.6666 32.9672C12.6904 33.0481 12.6971 33.133 12.6864 33.2165C12.6758 33.3001 12.648 33.3806 12.6047 33.453C12.5614 33.5255 12.5036 33.5884 12.4349 33.6378C12.3661 33.6872 12.2879 33.7221 12.205 33.7402C12.0349 33.7744 11.8581 33.7411 11.7125 33.6474C11.5669 33.5537 11.464 33.4072 11.4259 33.2392C11.3105 32.7382 11.1951 32.2372 11.0941 31.8077C10.7912 30.4621 10.4738 29.1165 10.1852 27.7709C10.1722 27.6955 10.1438 27.6236 10.1016 27.5596C10.0594 27.4955 10.0044 27.4408 9.93999 27.3987L9.14652 26.7975C8.85799 26.5828 8.56945 26.3537 8.26649 26.1533C7.66057 25.7096 7.05465 25.2658 6.4343 24.8364L6.33331 24.5644C6.46315 23.5051 6.57857 22.4315 6.70841 21.3722C6.79497 20.5562 6.89595 19.7546 6.99694 18.9386V18.6094V18.5378L7.21334 17.4212C7.21334 17.1731 7.2422 16.9154 7.2999 16.6482L6.14576 17.1922L5.77067 17.364L6.17462 17.7791L5.77067 17.364L5.00605 17.7075L3.28927 18.5235L3.17386 18.6809C3.01516 19.4826 2.8709 20.2699 2.7122 21.0715V21.1717C2.7122 21.458 2.58236 21.7157 2.52466 21.9877C2.50466 22.1088 2.44866 22.2212 2.36383 22.3104C2.279 22.3997 2.16922 22.4618 2.04857 22.4887C1.94405 22.5117 1.83542 22.5086 1.73236 22.4799C1.62931 22.4511 1.53503 22.3975 1.45791 22.3238C1.38079 22.2501 1.32324 22.1586 1.29037 22.0575C1.25751 21.9564 1.25035 21.8488 1.26953 21.7443C1.4715 20.7423 1.65905 19.7402 1.8466 18.7239C1.89404 18.4093 2.02256 18.1123 2.21971 17.8615C2.41686 17.6107 2.67595 17.4146 2.97188 17.2924L4.70309 16.4764V16.4049H4.86178L6.67955 15.5603C6.84868 15.4859 7.03215 15.4491 7.21712 15.4525C7.40208 15.4558 7.58407 15.4992 7.75035 15.5797C7.91664 15.6601 8.06319 15.7757 8.17976 15.9182C8.29632 16.0608 8.38009 16.2268 8.42519 16.4049C8.45405 16.6234 8.45405 16.8448 8.42519 17.0634C8.3242 17.9079 8.22321 18.7382 8.13665 19.5828V19.8261C8.13665 20.0695 8.06452 20.3128 8.03567 20.5562C7.93468 21.3721 7.84812 22.1738 7.74713 22.9897C7.74713 23.3476 7.66057 23.6912 7.63172 24.049L7.7327 24.1492ZM5.55427 30.7055C5.17917 31.5787 4.83293 32.4662 4.47226 33.3394C4.41083 33.492 4.29297 33.6155 4.14279 33.6847C3.99261 33.7539 3.82147 33.7635 3.66437 33.7116C3.58515 33.6876 3.51175 33.6476 3.4487 33.5943C3.38565 33.541 3.33428 33.4754 3.29777 33.4017C3.26127 33.3279 3.2404 33.2474 3.23646 33.1653C3.23251 33.0832 3.24558 33.0012 3.27485 32.9243C3.37105 32.6028 3.48668 32.2873 3.62109 31.9795C3.9529 31.0634 4.29914 30.1472 4.64538 29.2454C4.64538 29.0593 4.78965 28.8875 4.84736 28.7014V28.5439L4.9772 28.3006L5.85723 25.9816L6.96809 26.7689V26.955L5.91494 29.5746V29.7607C5.75624 30.0756 5.58312 30.4049 5.45328 30.7341L5.55427 30.7055ZM9.52162 17.8507L10.3295 18.5235L12.3637 20.0409C12.4364 20.0882 12.4985 20.1499 12.5462 20.222C12.5939 20.2942 12.6261 20.3753 12.6409 20.4603C12.6557 20.5453 12.6527 20.6324 12.6322 20.7163C12.6117 20.8001 12.574 20.8789 12.5215 20.9477C12.469 21.0164 12.4028 21.0738 12.3271 21.1162C12.2513 21.1585 12.1676 21.185 12.0811 21.1939C11.9946 21.2028 11.9072 21.1941 11.8243 21.1681C11.7414 21.1421 11.6647 21.0995 11.5991 21.0429L9.5649 19.2249V19.0388C9.5649 18.638 9.65146 18.2229 9.69474 17.822L9.52162 17.8507ZM10.5171 21.7157C10.8623 22.0952 11.3235 22.3517 11.8299 22.4458C12.3014 22.5197 12.7834 22.4066 13.1716 22.1308C13.4038 21.9783 13.5983 21.7755 13.7404 21.5378C13.8825 21.3001 13.9686 21.0336 13.9922 20.7582C14.0157 20.4828 13.9762 20.2057 13.8766 19.9476C13.777 19.6895 13.6198 19.4571 13.4168 19.2679C13.0994 18.9672 12.7388 18.6809 12.407 18.3946L9.85343 16.276L9.69474 16.0041C9.5928 15.6408 9.41087 15.3045 9.16208 15.0194C8.91329 14.7344 8.60383 14.5077 8.25604 14.3557C7.90825 14.2036 7.53079 14.1301 7.15089 14.1404C6.77099 14.1507 6.39813 14.2445 6.0592 14.4151L5.03491 14.9018L3.83749 15.4744L2.39482 16.1901C1.96367 16.3632 1.58108 16.6372 1.27965 16.9886C0.97821 17.34 0.766862 17.7586 0.663608 18.2086C0.43278 19.2249 0.274086 20.2699 -2.13347e-05 21.2863C-0.112412 21.7675 -0.0564472 22.2723 0.158673 22.7178C0.347427 23.0518 0.631962 23.3227 0.976156 23.496C1.32035 23.6693 1.70868 23.7373 2.09185 23.6912C2.44837 23.6391 2.78268 23.4877 3.05593 23.2545C3.32918 23.0214 3.53016 22.7161 3.63551 22.3742C3.76535 21.8589 3.85191 21.3292 3.9529 20.8139C4.05389 20.2985 4.08274 20.0552 4.14045 19.683C4.19816 19.3108 4.25586 19.2965 4.48669 19.2392L4.68866 19.1104H4.83293L5.77067 18.7382V18.8241C5.68411 19.6114 5.59755 20.3987 5.49656 21.1861L5.15032 24.1206C5.13892 24.3665 5.10512 24.6108 5.04933 24.8507C4.81851 25.5092 4.55882 26.1533 4.31357 26.7975L4.01061 27.6421L3.17386 29.6462L2.14956 32.3517C1.99941 32.7089 1.95439 33.101 2.01972 33.4826C2.09781 33.8763 2.30111 34.2347 2.59974 34.5053C2.89837 34.7758 3.27658 34.9442 3.67879 34.9856C4.06266 35.0298 4.45087 34.9543 4.78953 34.7696C5.12819 34.5849 5.40051 34.3002 5.56869 33.955C5.8428 33.3681 6.07363 32.7668 6.30446 32.1656C6.80939 30.9632 7.28548 29.7607 7.74713 28.5582C7.86254 28.3006 7.9491 28.0286 8.05009 27.7709L8.22321 27.5705V27.6564C8.41076 27.7852 8.59831 27.9141 8.77143 28.0572L8.9157 28.2576L9.30522 29.9754C9.55047 31.049 9.7813 32.1227 10.0266 33.1963C10.0917 33.6756 10.309 34.1218 10.6469 34.4703C10.8413 34.6661 11.077 34.8167 11.3371 34.9113C11.5971 35.0059 11.875 35.0422 12.1509 35.0176C12.4268 34.993 12.6937 34.908 12.9325 34.7688C13.1714 34.6296 13.3762 34.4397 13.5322 34.2126C13.6973 33.9945 13.8103 33.742 13.8628 33.4742C13.9153 33.2064 13.9058 32.9303 13.8352 32.6666C13.4457 30.82 12.984 28.9877 12.6234 27.1983C12.4697 26.392 12.0035 25.6776 11.325 25.2086C10.5603 24.6932 9.88229 24.1636 9.07439 23.6339L8.9734 23.4335C8.9734 23.1043 9.05996 22.7607 9.10324 22.4171C9.14652 22.0736 9.20423 21.4151 9.24751 20.8998V20.7423C9.63703 21.1002 10.0266 21.4294 10.3872 21.773" fill="#DA2128"/>
<path d="M9.75201 9.51938C10.0069 9.53181 10.2565 9.59532 10.486 9.70608C10.7154 9.81684 10.9199 9.97255 11.087 10.1638C11.2542 10.3551 11.3806 10.578 11.4586 10.819C11.5366 11.0601 11.5646 11.3143 11.5409 11.5664C11.5077 12.0347 11.2947 12.4725 10.9457 12.7894C10.5967 13.1064 10.1385 13.2784 9.66544 13.2699C9.41287 13.2662 9.16356 13.2127 8.93203 13.1125C8.7005 13.0123 8.49137 12.8674 8.31683 12.6862C8.14229 12.505 8.00582 12.2912 7.91537 12.0571C7.82491 11.8231 7.78229 11.5736 7.78997 11.3231C7.79926 11.0767 7.85741 10.8347 7.96107 10.6107C8.06474 10.3866 8.2119 10.1851 8.39413 10.0176C8.57636 9.85008 8.79008 9.71985 9.02308 9.63436C9.25608 9.54887 9.50378 9.5098 9.75201 9.51938ZM9.75201 14.5153C10.3715 14.5096 10.9756 14.3225 11.4883 13.9775C12.0011 13.6324 12.3997 13.1447 12.6342 12.5757C12.8686 12.0067 12.9285 11.3816 12.8062 10.7789C12.6839 10.1762 12.385 9.62283 11.9469 9.18813C11.5088 8.75343 10.9511 8.45681 10.3437 8.33548C9.73631 8.21416 9.10636 8.27355 8.53287 8.50618C7.95939 8.73882 7.46793 9.13435 7.12016 9.64313C6.7724 10.1519 6.58384 10.7513 6.57812 11.366C6.58192 12.2001 6.91753 12.9989 7.51193 13.5887C8.10632 14.1785 8.91141 14.5115 9.75201 14.5153Z" fill="#DA2128"/>
<path d="M23.7752 12.8834C24.095 13.8658 24.6667 14.7488 25.4342 15.4458C26.5149 16.4421 27.9141 17.0298 29.3872 17.1063C29.5747 17.1063 29.7623 17.1063 29.9354 17.1063H30.1229C30.4034 17.087 30.6827 17.0536 30.9597 17.0061C31.1272 16.9667 31.2912 16.914 31.4502 16.8486C32.0645 16.6964 32.6494 16.4449 33.1814 16.1043C33.2537 16.0558 33.3143 15.992 33.3589 15.9176C33.4034 15.8431 33.4308 15.7598 33.4391 15.6736C33.4474 15.5874 33.4363 15.5005 33.4067 15.419C33.3771 15.3375 33.3297 15.2636 33.268 15.2024H33.1381V15.1165C33.0394 15.06 32.9275 15.0302 32.8135 15.0302C32.6996 15.0302 32.5876 15.06 32.4889 15.1165C31.4556 15.7649 30.2185 16.0145 29.0121 15.818H28.6803H28.536C27.9672 15.6656 27.4265 15.424 26.9346 15.1022C25.9279 14.4225 25.2009 13.4064 24.886 12.2392C24.6413 11.336 24.6532 10.3831 24.9206 9.4862C25.188 8.58927 25.7003 7.78326 26.4008 7.15743C26.4679 7.10343 26.5234 7.0367 26.5641 6.96114C26.6049 6.88558 26.63 6.80272 26.6381 6.7174C26.6461 6.63208 26.637 6.54603 26.6111 6.46427C26.5852 6.38252 26.5432 6.30671 26.4874 6.24128C26.4293 6.17928 26.359 6.12983 26.2808 6.09601C26.2026 6.06219 26.1182 6.04474 26.033 6.04474C25.9477 6.04474 25.8633 6.06219 25.7851 6.09601C25.7069 6.12983 25.6366 6.17928 25.5785 6.24128C24.8756 6.84328 24.3186 7.59481 23.949 8.43996C23.5793 9.2851 23.4065 10.2021 23.4434 11.1227C23.463 11.7229 23.5749 12.3167 23.7752 12.8834Z" fill="#54616C"/>
<path d="M20.1973 7.5153V7.67277C20.0531 8.25968 19.8655 8.84659 19.7645 9.44782C19.5366 10.9348 19.6601 12.454 20.1252 13.8854C20.6422 15.5279 21.582 17.0081 22.8519 18.1799C24.1299 19.3682 25.7032 20.1982 27.4107 20.5848H27.6415H27.7281L28.9399 20.7566C30.2046 20.8608 31.4776 20.7247 32.6909 20.3558C32.8529 20.3024 33.0118 20.2403 33.167 20.1697H33.268C34.0393 19.8979 34.7717 19.5274 35.4464 19.0675C35.5146 19.0223 35.5732 18.9643 35.6188 18.8968C35.6644 18.8292 35.6961 18.7533 35.7122 18.6736C35.7283 18.5938 35.7284 18.5117 35.7125 18.4319C35.6966 18.3521 35.665 18.2762 35.6195 18.2086C35.574 18.1409 35.5156 18.0828 35.4475 18.0375C35.3794 17.9922 35.3029 17.9607 35.2226 17.9448C35.1422 17.9288 35.0594 17.9287 34.979 17.9445C34.8986 17.9603 34.8221 17.9917 34.7539 18.0368C34.0021 18.5439 33.1744 18.9304 32.3014 19.182L32.2292 19.2535H32.0994C31.0767 19.5348 30.0115 19.6318 28.9544 19.5398H28.6803H28.5937C27.9401 19.445 27.2974 19.2868 26.6749 19.0675C25.528 18.6592 24.4809 18.0153 23.6021 17.1779C22.2468 15.8924 21.3376 14.2133 21.0052 12.3824C20.7899 11.1947 20.8292 9.97527 21.1207 8.80365V8.44578L21.2072 8.274C21.4584 7.47761 21.8227 6.72084 22.2892 6.02655C22.7882 5.29573 23.3907 4.64005 24.0781 4.07972C24.1983 3.97693 24.2753 3.83322 24.294 3.6769C24.3127 3.52058 24.2717 3.36298 24.1791 3.23514C24.072 3.10775 23.9203 3.02518 23.7545 3.00395C23.5887 2.98272 23.4209 3.02439 23.2847 3.12062L22.8374 3.50712C21.6939 4.53224 20.8051 5.80613 20.2406 7.22901L20.1973 7.5153Z" fill="#54616C"/>
</g>
<defs>
<clipPath id="clip0">
<rect width="38" height="35" fill="white"/>
</clipPath>
</defs>
</svg>
