<svg width="36" height="35" viewBox="0 0 36 35" fill="none" xmlns="http://www.w3.org/2000/svg">
<path d="M26.4133 16.2201L18.0827 31.2511C18.0274 31.3746 17.9467 31.4839 17.8463 31.5711C17.7458 31.6583 17.6281 31.7213 17.5015 31.7556C17.375 31.7899 17.2427 31.7946 17.1142 31.7694C16.9857 31.7443 16.8642 31.6898 16.7582 31.6099C16.6402 31.5519 16.5358 31.4678 16.4521 31.3635C16.3684 31.2592 16.3074 31.1372 16.2734 31.0059C16.2394 30.8747 16.2331 30.7372 16.2551 30.6032C16.2771 30.4692 16.3267 30.3417 16.4006 30.2297L24.7313 15.1849C24.8007 15.0334 24.9095 14.9053 25.0452 14.815C25.181 14.7247 25.3384 14.6759 25.4995 14.6742C25.6869 14.6802 25.8696 14.7373 26.0293 14.8399C26.1489 14.8961 26.255 14.9792 26.3401 15.0833C26.4252 15.1874 26.487 15.3099 26.5212 15.4419C26.5554 15.5739 26.5611 15.7121 26.5379 15.8467C26.5147 15.9813 26.4631 16.1088 26.3869 16.2201H26.4133ZM18.8111 14.8399L23.195 15.3782L15.7649 28.808L13.063 25.2884L18.8111 14.8399ZM6.44088 11.2098C6.77204 11.2071 7.0965 11.3071 7.37295 11.4971C7.6494 11.6872 7.86535 11.9586 7.99329 12.277C8.12123 12.5953 8.1554 12.9461 8.09143 13.2848C8.02746 13.6234 7.86826 13.9346 7.63408 14.1786C7.3999 14.4227 7.10134 14.5886 6.7764 14.6552C6.45146 14.7219 6.11483 14.6863 5.80936 14.553C5.5039 14.4196 5.24341 14.1946 5.06105 13.9065C4.87869 13.6184 4.78272 13.2802 4.78533 12.9351C4.7888 12.4786 4.96433 12.0419 5.27406 11.7191C5.58379 11.3963 6.00287 11.2134 6.44088 11.2098ZM5.73893 8.44929V2.21055C5.72506 2.10511 5.73303 1.99779 5.76228 1.89583C5.79154 1.79386 5.84141 1.69961 5.90854 1.6194C5.97567 1.5392 6.05851 1.47491 6.15147 1.43086C6.24444 1.38681 6.34537 1.36402 6.4475 1.36402C6.54962 1.36402 6.65056 1.38681 6.74353 1.43086C6.83649 1.47491 6.91932 1.5392 6.98645 1.6194C7.05359 1.69961 7.10346 1.79386 7.13271 1.89583C7.16197 1.99779 7.16994 2.10511 7.15607 2.21055V10.009C6.9277 9.94209 6.69133 9.90955 6.45412 9.91236C6.21293 9.91557 5.97293 9.948 5.73893 10.009V8.44929ZM26.6782 13.7357C26.2443 13.4619 25.7317 13.3561 25.2304 13.4368C24.729 13.5176 24.271 13.7798 23.9366 14.1773L18.6389 13.5286L15.99 11.9137C15.8476 11.8284 15.6786 11.8051 15.5198 11.8491C15.3611 11.893 15.2254 12.0006 15.1424 12.1484C15.1001 12.2214 15.0722 12.3025 15.0606 12.387C15.0491 12.4714 15.0539 12.5574 15.0749 12.6399C15.0959 12.7223 15.1327 12.7995 15.183 12.8669C15.2332 12.9342 15.296 12.9903 15.3676 13.0317L17.6191 14.412L12.083 24.4602L9.83143 23.08L3.97743 19.6017C3.09239 19.0683 2.3651 18.2916 1.8751 17.3565C1.3851 16.4213 1.15124 15.3638 1.19909 14.2995C1.24694 13.2352 1.57466 12.2051 2.14641 11.3218C2.71817 10.4385 3.51196 9.73607 4.44098 9.29124V10.6715C4.14338 10.9524 3.90584 11.2954 3.74383 11.6783C3.58182 12.0612 3.49896 12.4753 3.50063 12.8937C3.47379 13.3069 3.52872 13.7215 3.662 14.1116C3.79528 14.5018 4.00407 14.8592 4.27543 15.1618C4.54678 15.4644 4.8749 15.7056 5.23943 15.8706C5.60396 16.0355 5.99712 16.1206 6.39452 16.1206C6.79192 16.1206 7.18509 16.0355 7.54962 15.8706C7.91415 15.7056 8.24226 15.4644 8.51362 15.1618C8.78497 14.8592 8.99376 14.5018 9.12704 14.1116C9.26032 13.7215 9.31525 13.3069 9.28841 12.8937C9.29008 12.4753 9.20722 12.0612 9.04521 11.6783C8.8832 11.2954 8.64566 10.9524 8.34806 10.6715V9.00139C8.76835 9.13187 9.17278 9.3125 9.5533 9.53969L10.5996 10.147L10.9175 10.2436C11.0275 10.2409 11.1351 10.2091 11.2301 10.1512C11.3251 10.0932 11.4044 10.011 11.4605 9.91236C11.5005 9.83805 11.5261 9.75625 11.5358 9.67163C11.5454 9.58701 11.539 9.50124 11.5169 9.41921C11.4948 9.33717 11.4573 9.26049 11.4067 9.19354C11.3562 9.12658 11.2934 9.07067 11.2221 9.029L10.2288 8.44929C9.65825 8.10481 9.04251 7.84906 8.40104 7.69015V2.21055C8.42329 1.9291 8.38931 1.6459 8.30124 1.37883C8.21316 1.11176 8.07291 0.866628 7.88934 0.658902C7.70576 0.451176 7.48285 0.285374 7.23468 0.171964C6.98652 0.0585536 6.71848 0 6.4475 0C6.17652 0 5.90848 0.0585536 5.66031 0.171964C5.41214 0.285374 5.18923 0.451176 5.00566 0.658902C4.82208 0.866628 4.68183 1.11176 4.59376 1.37883C4.50568 1.6459 4.4717 1.9291 4.49396 2.21055V7.89719C3.27319 8.3589 2.20427 9.1742 1.41285 10.2473C0.62144 11.3203 0.140428 12.6066 0.0263637 13.9547C-0.0877007 15.3029 0.169923 16.657 0.768951 17.8579C1.36798 19.0587 2.28351 20.0563 3.40792 20.7335L9.27516 24.2256L11.924 25.8405L15.1821 29.9812C15.0165 30.4809 15.0283 31.0259 15.2154 31.5172C15.4025 32.0086 15.7526 32.4137 16.202 32.6589C16.5516 32.8724 16.9489 32.9867 17.3542 32.9902C17.7206 32.992 18.0811 32.8935 18.3995 32.7046C18.7179 32.5156 18.9832 32.2429 19.1687 31.9136L27.4861 16.8688C27.6382 16.6099 27.738 16.3215 27.7797 16.021C27.8213 15.7206 27.8037 15.4145 27.7281 15.1213C27.6526 14.8282 27.5205 14.5542 27.34 14.3159C27.1595 14.0777 26.9343 13.8803 26.6782 13.7357Z" fill="#DA2128"/>
<path d="M24.5855 31.9965L27.2344 34.757C27.3837 34.9126 27.5862 35 27.7973 35C28.0084 35 28.2109 34.9126 28.3602 34.757C28.5095 34.6014 28.5933 34.3904 28.5933 34.1704C28.5933 33.9504 28.5095 33.7394 28.3602 33.5838L25.7113 30.8233C25.6396 30.7448 25.5533 30.6823 25.4576 30.6396C25.362 30.5969 25.2591 30.5748 25.155 30.5748C25.051 30.5748 24.9481 30.5969 24.8524 30.6396C24.7568 30.6823 24.6705 30.7448 24.5988 30.8233C24.5231 30.8992 24.4629 30.9904 24.4217 31.0911C24.3806 31.1919 24.3594 31.3003 24.3594 31.4099C24.3594 31.5194 24.3806 31.6278 24.4217 31.7286C24.4629 31.8294 24.5231 31.9205 24.5988 31.9965" fill="#54616C"/>
<path d="M26.3739 26.8895L33.1153 30.3815C33.2091 30.4311 33.3114 30.4609 33.4163 30.469C33.5212 30.4771 33.6266 30.4634 33.7264 30.4288C33.8262 30.3941 33.9184 30.3391 33.9977 30.267C34.0769 30.195 34.1416 30.1072 34.1881 30.0088C34.2766 29.8122 34.2889 29.5876 34.2222 29.3818C34.1556 29.1761 34.0152 29.0051 33.8305 28.9046L27.0626 25.3988C26.9688 25.3491 26.8665 25.3194 26.7616 25.3113C26.6567 25.3032 26.5513 25.3169 26.4515 25.3515C26.3517 25.3862 26.2595 25.4412 26.1803 25.5132C26.101 25.5853 26.0363 25.6731 25.9898 25.7714C25.8972 25.9695 25.8828 26.1975 25.9497 26.4065C26.0165 26.6155 26.1593 26.7889 26.3474 26.8895" fill="#54616C"/>
<path d="M30.4666 22.6521L34.4399 23.3008C34.5434 23.3164 34.6489 23.3106 34.7502 23.2836C34.8515 23.2567 34.9468 23.2091 35.0304 23.1437C35.1141 23.0783 35.1846 22.9964 35.2378 22.9025C35.291 22.8087 35.3259 22.7048 35.3405 22.5969C35.371 22.3811 35.3185 22.1615 35.1945 21.9858C35.0705 21.81 34.885 21.6924 34.6783 21.6583L30.705 21.0096C30.6015 20.994 30.496 20.9999 30.3947 21.0268C30.2933 21.0538 30.1981 21.1013 30.1144 21.1667C30.0308 21.2321 29.9603 21.3141 29.9071 21.4079C29.8539 21.5018 29.819 21.6056 29.8044 21.7136C29.7739 21.9294 29.8264 22.149 29.9503 22.3247C30.0743 22.5004 30.2598 22.6181 30.4666 22.6521Z" fill="#54616C"/>
</svg>
