<svg width="35" height="35" viewBox="0 0 35 35" fill="none" xmlns="http://www.w3.org/2000/svg">
<g clip-path="url(#clip0)">
<path d="M29.4961 26.7552C23.2758 27.7297 17.2272 24.8442 14.0864 19.4042C10.9459 13.9647 11.4715 7.28392 15.4255 2.38425C15.6152 2.14927 15.6408 1.82165 15.4897 1.56001C15.3387 1.29838 15.0423 1.15667 14.7439 1.20332C12.7057 1.52222 10.7838 2.1969 9.03148 3.2086C1.12655 7.77252 -1.59183 17.9165 2.97186 25.821C7.53607 33.7264 17.6805 36.4451 25.5854 31.8811C27.336 30.8705 28.8812 29.5431 30.178 27.936C30.3676 27.7009 30.3931 27.3734 30.242 27.1117C30.0911 26.85 29.7946 26.7084 29.4961 26.7552ZM24.8548 30.6154C17.6478 34.7763 8.39896 32.2977 4.23769 25.0902C0.076811 17.8836 2.55522 8.63528 9.76224 4.47431C10.83 3.85785 11.9677 3.37852 13.1609 3.04171C11.756 5.26851 10.902 7.79633 10.6694 10.4505C10.3727 13.8344 11.1167 17.1832 12.8208 20.1347C14.5248 23.0862 17.0529 25.4049 20.1318 26.8403C22.5473 27.9662 25.1634 28.4907 27.7946 28.3874C26.9058 29.2532 25.9219 29.9993 24.8548 30.6154Z" fill="#DA2128"/>
<path d="M30.3793 14.3628L27.9635 13.9567L26.9277 11.7372C26.8493 11.5692 26.6823 11.4602 26.4969 11.4561C26.3116 11.452 26.1397 11.5535 26.0541 11.718L24.9216 13.889L22.4889 14.1887C22.3048 14.2114 22.1496 14.3366 22.0885 14.5116C22.0274 14.6868 22.0709 14.8814 22.2008 15.0137L23.918 16.7621L23.4503 19.1663C23.4148 19.3485 23.4859 19.5349 23.6336 19.6471C23.7812 19.7595 23.9798 19.7782 24.1458 19.6955L26.3381 18.6037L28.4823 19.792C28.6326 19.8753 28.8148 19.8728 28.962 19.7878C28.9736 19.7811 28.9851 19.7739 28.9962 19.7662C29.1486 19.6605 29.2278 19.4774 29.2005 19.294L28.8392 16.8702L30.6308 15.1998C30.7665 15.0733 30.8185 14.8808 30.7651 14.7032C30.7118 14.5254 30.5622 14.3936 30.3793 14.3628ZM27.9871 16.3322C27.8697 16.4416 27.8137 16.6018 27.8374 16.7605L28.0909 18.4609L26.5864 17.6272C26.4462 17.5493 26.2767 17.5457 26.1331 17.6172L24.5955 18.3829L24.9236 16.6966C24.9542 16.5391 24.9054 16.3766 24.7929 16.2621L23.5879 15.0352L25.2948 14.8249C25.4539 14.8052 25.5932 14.7088 25.6672 14.5666L26.4618 13.0435L27.1886 14.6007C27.2564 14.7461 27.3913 14.8487 27.5493 14.8752L29.2442 15.1601L27.9871 16.3322Z" fill="#54616C"/>
<path d="M20.4529 8.4252L21.714 7.79698L22.9476 8.48127C23.0999 8.56565 23.2844 8.56324 23.4334 8.47719C23.4452 8.47037 23.4566 8.4631 23.4679 8.45535C23.6222 8.34831 23.7024 8.16299 23.6748 7.97733L23.4671 6.58254L24.4979 5.6212C24.6351 5.49319 24.6878 5.2983 24.6339 5.11853C24.5798 4.93882 24.4284 4.80518 24.2431 4.77411L22.8527 4.54028L22.2575 3.26328C22.1782 3.09321 22.0093 2.98273 21.8215 2.97853C21.6341 2.97432 21.4604 3.07694 21.3733 3.24334L20.7205 4.49333L19.3211 4.6657C19.1348 4.68862 18.9776 4.81539 18.9157 4.9926C18.8538 5.16991 18.8979 5.36691 19.0296 5.50083L20.018 6.50666L19.749 7.88936C19.713 8.07379 19.7851 8.26241 19.9344 8.37614C20.0838 8.48997 20.2849 8.50894 20.4529 8.4252ZM20.9035 6.00051L20.4338 5.52266L21.0981 5.44081C21.259 5.42095 21.3999 5.32327 21.4751 5.17965L21.7854 4.58537L22.0681 5.19225C22.1366 5.33947 22.2733 5.44339 22.4335 5.47023L23.0944 5.58126L22.6046 6.0381C22.4859 6.14885 22.4294 6.31091 22.4531 6.4714L22.5518 7.13358L21.9656 6.80833C21.8236 6.72955 21.6518 6.72572 21.5064 6.79816L20.9081 7.09621L21.0357 6.44021C21.0668 6.28105 21.0173 6.11653 20.9035 6.00051Z" fill="#54616C"/>
</g>
<defs>
<clipPath id="clip0">
<rect width="35" height="35" fill="white"/>
</clipPath>
</defs>
</svg>
