<svg width="21" height="35" viewBox="0 0 21 35" fill="none" xmlns="http://www.w3.org/2000/svg">
<g clip-path="url(#clip0)">
<path d="M15.7008 18.1927C15.7008 19.5115 15.1309 20.7762 14.1165 21.7087C13.1021 22.6412 11.7262 23.1651 10.2916 23.1651C8.85695 23.1651 7.48109 22.6412 6.46666 21.7087C5.45223 20.7762 4.88233 19.5115 4.88233 18.1927V6.59693C4.88233 5.27818 5.45223 4.01345 6.46666 3.08096C7.48109 2.14847 8.85695 1.6246 10.2916 1.6246C11.7262 1.6246 13.1021 2.14847 14.1165 3.08096C15.1309 4.01345 15.7008 5.27818 15.7008 6.59693V18.1927ZM10.2916 0.27832C8.46974 0.280827 6.72336 0.947461 5.43552 2.132C4.14767 3.31653 3.42351 4.92225 3.42188 6.59693V18.1927C3.42188 19.868 4.14586 21.4747 5.43457 22.6593C6.72327 23.8439 8.47113 24.5094 10.2936 24.5094C12.1161 24.5094 13.864 23.8439 15.1527 22.6593C16.4414 21.4747 17.1654 19.868 17.1654 18.1927V6.59693C17.1637 4.92159 16.439 3.3153 15.1503 2.13066C13.8615 0.946017 12.1141 0.279824 10.2916 0.27832Z" fill="#54616C"/>
<path d="M10.9837 30.6519H9.60148V27.4443C9.83013 27.4595 10.0629 27.4671 10.2936 27.4671C10.5243 27.4671 10.7591 27.4671 10.9878 27.4443L10.9837 30.6519ZM14.5761 33.3426H6.00493C6.15647 32.9486 6.43707 32.6074 6.80815 32.366C7.17923 32.1246 7.62256 31.9948 8.07717 31.9944H12.5038C12.9584 31.9951 13.4016 32.125 13.7726 32.3664C14.1436 32.6077 14.4243 32.9488 14.5761 33.3426ZM19.6496 17.5205C19.5536 17.5205 19.4586 17.5379 19.37 17.5717C19.2814 17.6055 19.201 17.6551 19.1332 17.7175C19.0655 17.7799 19.0118 17.8541 18.9753 17.9356C18.9388 18.0172 18.9201 18.1045 18.9204 18.1927C18.9204 20.2964 18.0113 22.3139 16.393 23.8014C14.7748 25.2889 12.58 26.1246 10.2915 26.1246C8.00303 26.1246 5.80825 25.2889 4.19003 23.8014C2.57181 22.3139 1.66271 20.2964 1.66271 18.1927C1.66271 18.0144 1.58567 17.8435 1.44853 17.7174C1.31139 17.5913 1.12539 17.5205 0.931453 17.5205C0.737511 17.5205 0.551511 17.5913 0.414374 17.7174C0.277237 17.8435 0.200195 18.0144 0.200195 18.1927C0.203217 20.3076 0.991226 22.3583 2.43397 24.0057C3.87671 25.6532 5.88782 26.7987 8.13485 27.2531V30.6614H8.07717C7.10709 30.6619 6.17689 31.0164 5.49093 31.6469C4.80498 32.2775 4.41937 33.1325 4.41883 34.0243C4.41883 34.2025 4.49587 34.3735 4.63301 34.4996C4.77014 34.6256 4.95614 34.6964 5.15008 34.6964H15.433C15.6269 34.6964 15.8129 34.6256 15.9501 34.4996C16.0872 34.3735 16.1643 34.2025 16.1643 34.0243C16.1632 33.1324 15.7771 32.2773 15.0908 31.6468C14.4045 31.0163 13.4741 30.6619 12.5038 30.6614H12.4462V27.2531C14.6934 26.7988 16.7048 25.6533 18.1479 24.0059C19.5909 22.3585 20.3794 20.3078 20.3829 18.1927C20.3829 18.1043 20.3639 18.0167 20.327 17.935C20.2901 17.8534 20.2361 17.7792 20.168 17.7167C20.0999 17.6543 20.019 17.6048 19.93 17.5711C19.8411 17.5375 19.7458 17.5203 19.6496 17.5205Z" fill="#54616C"/>
<path d="M10.2916 21.6845C11.299 21.6835 12.2648 21.315 12.977 20.66C13.6891 20.0051 14.0894 19.117 14.09 18.191C14.09 18.0127 14.0129 17.8417 13.8758 17.7157C13.7387 17.5896 13.5527 17.5188 13.3587 17.5188C13.1648 17.5188 12.9788 17.5896 12.8416 17.7157C12.7045 17.8417 12.6275 18.0127 12.6275 18.191C12.6288 18.4739 12.5694 18.7542 12.4527 19.0159C12.3359 19.2776 12.1641 19.5156 11.9471 19.7161C11.73 19.9166 11.4721 20.0758 11.188 20.1845C10.9039 20.2932 10.5993 20.3493 10.2916 20.3496C10.0976 20.3496 9.91162 20.4204 9.77448 20.5465C9.63734 20.6725 9.5603 20.8435 9.5603 21.0218C9.5603 21.2 9.63734 21.371 9.77448 21.4971C9.91162 21.6231 10.0976 21.694 10.2916 21.694" fill="#54616C"/>
<path d="M13.3588 16.5435C13.5512 16.5438 13.7364 16.476 13.8758 16.3541C14.0117 16.2282 14.0879 16.0581 14.0879 15.8807C14.0879 15.7034 14.0117 15.5333 13.8758 15.4074C13.7388 15.2825 13.5538 15.2124 13.3608 15.2124C13.1679 15.2124 12.9828 15.2825 12.8459 15.4074C12.71 15.5333 12.6338 15.7034 12.6338 15.8807C12.6338 16.0581 12.71 16.2282 12.8459 16.3541C12.9853 16.476 13.1705 16.5438 13.3629 16.5435" fill="#54616C"/>
</g>
<defs>
<clipPath id="clip0">
<rect width="20.1827" height="34.4068" fill="white" transform="translate(0.200195 0.280273)"/>
</clipPath>
</defs>
</svg>
