<svg width="31" height="31" viewBox="0 0 31 31" fill="none" xmlns="http://www.w3.org/2000/svg">
<g clip-path="url(#clip0)">
<path d="M14.4439 30.9233C11.4775 30.9312 8.56979 30.0967 6.05914 28.5167C3.54849 26.9368 1.53811 24.6763 0.261893 21.9985C0.199945 21.8628 0.180943 21.7114 0.207433 21.5646C0.233923 21.4179 0.30464 21.2827 0.410109 21.1772C0.515578 21.0717 0.65076 21.001 0.797544 20.9745C0.944328 20.948 1.0957 20.967 1.23138 21.029C3.89988 22.3111 6.90041 22.7337 9.81924 22.2387C12.7381 21.7437 15.4314 20.3553 17.528 18.265C19.618 16.1683 21.0062 13.475 21.5012 10.5562C21.9963 7.63746 21.5738 4.637 20.2919 1.96844C20.23 1.83276 20.211 1.68139 20.2375 1.5346C20.264 1.38782 20.3347 1.25264 20.4401 1.14717C20.5456 1.0417 20.6808 0.970984 20.8276 0.944494C20.9744 0.918004 21.1257 0.937006 21.2614 0.998954C24.4828 2.53889 27.0844 5.12885 28.6389 8.34322C30.1933 11.5576 30.608 15.2051 29.8149 18.6864C29.0218 22.1677 27.068 25.2756 24.2746 27.4995C21.4812 29.7233 18.0144 30.9307 14.4439 30.9233ZM2.56855 23.1271C3.08346 23.9048 3.6748 24.6291 4.33375 25.2893C7.01464 27.9704 10.6508 29.4767 14.4423 29.4769C18.2339 29.4771 21.8702 27.9711 24.5513 25.2902C27.2324 22.6093 28.7388 18.9731 28.7389 15.1816C28.7391 11.3901 27.2331 7.75378 24.5522 5.07264C23.8922 4.41354 23.1679 3.82218 22.3901 3.30744C23.2857 6.06636 23.4011 9.0192 22.7236 11.8396C22.046 14.66 20.6018 17.2382 18.5507 19.2892C16.4995 21.3402 13.9212 22.7841 11.1007 23.4614C8.28022 24.1387 5.32739 24.023 2.56855 23.1271Z" fill="#54616C"/>
<path d="M15.3944 12.4365H5.69946C5.50541 12.4365 5.3193 12.3594 5.18208 12.2222C5.04486 12.085 4.96777 11.8989 4.96777 11.7048C4.96777 11.5108 5.04486 11.3247 5.18208 11.1875C5.3193 11.0502 5.50541 10.9731 5.69946 10.9731H15.3944C15.5884 10.9731 15.7745 11.0502 15.9118 11.1875C16.049 11.3247 16.1261 11.5108 16.1261 11.7048C16.1261 11.8989 16.049 12.085 15.9118 12.2222C15.7745 12.3594 15.5884 12.4365 15.3944 12.4365Z" fill="#54616C"/>
<path d="M13.2121 16.0713H7.88355C7.68949 16.0713 7.50338 15.9942 7.36616 15.857C7.22894 15.7198 7.15186 15.5337 7.15186 15.3396C7.15186 15.1455 7.22894 14.9594 7.36616 14.8222C7.50338 14.685 7.68949 14.6079 7.88355 14.6079H13.2121C13.4061 14.6079 13.5922 14.685 13.7295 14.8222C13.8667 14.9594 13.9438 15.1455 13.9438 15.3396C13.9438 15.5337 13.8667 15.7198 13.7295 15.857C13.5922 15.9942 13.4061 16.0713 13.2121 16.0713Z" fill="#54616C"/>
<path d="M13.212 8.8072H7.88344C7.7811 8.81869 7.67749 8.80845 7.57939 8.77716C7.48128 8.74586 7.39088 8.69421 7.31411 8.62557C7.23733 8.55694 7.17591 8.47288 7.13386 8.37888C7.0918 8.28487 7.07007 8.18306 7.07007 8.08008C7.07007 7.9771 7.0918 7.87528 7.13386 7.78128C7.17591 7.68728 7.23733 7.60321 7.31411 7.53458C7.39088 7.46595 7.48128 7.41429 7.57939 7.383C7.67749 7.3517 7.7811 7.34147 7.88344 7.35296H13.212C13.3143 7.34147 13.4179 7.3517 13.516 7.383C13.6141 7.41429 13.7045 7.46595 13.7813 7.53458C13.8581 7.60321 13.9195 7.68728 13.9616 7.78128C14.0036 7.87528 14.0253 7.9771 14.0253 8.08008C14.0253 8.18306 14.0036 8.28487 13.9616 8.37888C13.9195 8.47288 13.8581 8.55694 13.7813 8.62557C13.7045 8.69421 13.6141 8.74586 13.516 8.77716C13.4179 8.80845 13.3143 8.81869 13.212 8.8072Z" fill="#54616C"/>
</g>
<defs>
<clipPath id="clip0">
<rect width="29.9957" height="29.9957" fill="white" transform="translate(0.187988 0.927002)"/>
</clipPath>
</defs>
</svg>
