<svg width="52" height="52" viewBox="0 0 52 52" fill="none" xmlns="http://www.w3.org/2000/svg">
<path d="M4.0127 15.0229L6.24401 18.839" stroke="#54616C" stroke-width="1.5" stroke-miterlimit="10" stroke-linecap="round"/>
<path d="M7.17334 20.4478L8.19044 22.1823" stroke="#54616C" stroke-width="1.5" stroke-miterlimit="10" stroke-linecap="round"/>
<path d="M10.4298 19.5185L9.88525 18.5557" stroke="#54616C" stroke-width="1.5" stroke-miterlimit="10" stroke-linecap="round"/>
<path d="M12.0474 15.9858L11.5107 15.0229" stroke="#54616C" stroke-width="1.5" stroke-miterlimit="10" stroke-linecap="round"/>
<path d="M8.96291 16.9388L7.9458 15.2043" stroke="#54616C" stroke-width="1.5" stroke-miterlimit="10" stroke-linecap="round"/>
<path d="M27.4448 1.44604V51" stroke="#54616C" stroke-width="1.5" stroke-miterlimit="10" stroke-linecap="round"/>
<path d="M45.2795 13.1472C48.1273 13.1472 50.4359 10.8385 50.4359 7.9907C50.4359 5.14286 48.1273 2.83423 45.2795 2.83423C42.4317 2.83423 40.123 5.14286 40.123 7.9907C40.123 10.8385 42.4317 13.1472 45.2795 13.1472Z" stroke="#54616C" stroke-width="1.5" stroke-miterlimit="10" stroke-linecap="round"/>
<path d="M47.7866 16.6238L48.7249 19.8327" stroke="#54616C" stroke-width="1.5" stroke-miterlimit="10" stroke-linecap="round"/>
<path d="M40.9505 15.875L39.342 18.8001" stroke="#54616C" stroke-width="1.5" stroke-miterlimit="10" stroke-linecap="round"/>
<path d="M36.6458 10.5056L33.4368 11.4439" stroke="#54616C" stroke-width="1.5" stroke-miterlimit="10" stroke-linecap="round"/>
<path d="M37.3949 3.66947L34.4697 2.06104" stroke="#54616C" stroke-width="1.5" stroke-miterlimit="10" stroke-linecap="round"/>
<path d="M14.4116 42.9346V31.439" stroke="#54616C" stroke-width="1.5" stroke-miterlimit="10" stroke-linecap="round"/>
<path d="M25.1342 21.4177L12.1248 33.4968C11.952 33.6564 11.7494 33.7804 11.5286 33.8616C11.3078 33.9428 11.0732 33.9798 10.8381 33.9702C10.603 33.9607 10.3722 33.9049 10.1587 33.8061C9.94516 33.7073 9.75325 33.5673 9.59389 33.3943V33.3943C9.43452 33.2221 9.31071 33.0202 9.22957 32.8C9.14844 32.5799 9.11157 32.3459 9.1211 32.1115C9.13062 31.877 9.18634 31.6468 9.28507 31.434C9.38379 31.2211 9.52358 31.0299 9.69639 30.8712L25.1342 16.553" stroke="#54616C" stroke-width="1.5" stroke-miterlimit="10" stroke-linecap="round"/>
<path d="M22.7688 42.9344V33.6228H25.1342" stroke="#54616C" stroke-width="1.5" stroke-linecap="round" stroke-linejoin="round"/>
<path d="M40.4619 42.9346V31.439" stroke="#54616C" stroke-width="1.5" stroke-miterlimit="10" stroke-linecap="round"/>
<path d="M29.739 21.4177L42.7484 33.4889C42.9212 33.6485 43.1238 33.7725 43.3446 33.8537C43.5654 33.935 43.8 33.9719 44.0351 33.9624C44.2702 33.9529 44.5011 33.8971 44.7145 33.7983C44.928 33.6994 45.12 33.5595 45.2793 33.3864V33.3864C45.4387 33.2142 45.5625 33.0123 45.6436 32.7922C45.7248 32.572 45.7616 32.338 45.7521 32.1036C45.7426 31.8692 45.6869 31.6389 45.5881 31.4261C45.4894 31.2133 45.3496 31.022 45.1768 30.8634L29.739 16.553" stroke="#54616C" stroke-width="1.5" stroke-miterlimit="10" stroke-linecap="round"/>
<path d="M32.1122 42.9344V33.6228H29.739" stroke="#54616C" stroke-width="1.5" stroke-linecap="round" stroke-linejoin="round"/>
<path d="M14.8223 26.148V19.3121C14.8223 19.103 14.9053 18.9025 15.0532 18.7546C15.2011 18.6068 15.4016 18.5237 15.6107 18.5237H17.1876C17.3967 18.5237 17.5973 18.6068 17.7451 18.7546C17.893 18.9025 17.9761 19.103 17.9761 19.3121V23.1913" stroke="#54616C" stroke-width="1.5" stroke-miterlimit="10" stroke-linecap="round"/>
<path d="M13.8044 4.28458C14.8744 4.28666 15.9 4.71264 16.6566 5.46925C17.4132 6.22585 17.8392 7.25143 17.8413 8.32143C17.8413 9.39208 17.4159 10.4189 16.6589 11.1759C15.9018 11.933 14.875 12.3583 13.8044 12.3583H4.24052C3.38108 12.3583 2.55684 12.0169 1.94913 11.4092C1.34141 10.8014 1 9.97721 1 9.11777C1.00209 8.2597 1.34442 7.43748 1.95191 6.83146C2.5594 6.22545 3.38245 5.88512 4.24052 5.88513V5.88513C4.23552 4.88744 4.5399 3.91273 5.11176 3.09518C5.68362 2.27764 6.49484 1.65745 7.43374 1.32001C11.9279 -0.21747 13.8044 4.28458 13.8044 4.28458Z" stroke="#54616C" stroke-width="1.5" stroke-linecap="round" stroke-linejoin="round"/>
</svg>
