<svg width="45" height="40" viewBox="0 0 45 40" fill="none" xmlns="http://www.w3.org/2000/svg">
<g clip-path="url(#clip0)">
<path d="M44.7935 24.0812C44.6795 23.9338 44.5092 23.8347 44.3191 23.8049C44.1289 23.7752 43.9341 23.8173 43.7763 23.9222C43.0507 24.3273 42.3388 24.7586 41.5856 25.1114C40.4353 25.6368 39.2146 26.0105 37.9575 26.2222C36.456 26.4843 34.9207 26.524 33.4063 26.3398C32.1265 26.1892 30.8743 25.8741 29.684 25.4033C27.0516 24.3754 24.7896 22.646 23.1718 20.4243C22.224 19.1453 21.5134 17.7222 21.0707 16.2163C20.5732 14.5501 20.4173 12.8089 20.6114 11.087C20.7592 9.748 21.1127 8.43672 21.6608 7.19484C21.7527 6.9901 21.8285 6.77883 21.9111 6.57192L22.0236 6.43906C22.2073 6.12107 22.375 5.79654 22.5702 5.48508C23.4944 4.01346 24.6926 2.71315 26.1064 1.64737C26.1818 1.59088 26.2447 1.52086 26.2916 1.44131C26.3384 1.36175 26.3683 1.27422 26.3795 1.18372C26.3907 1.09321 26.383 1.0015 26.3568 0.913818C26.3307 0.826137 26.2865 0.744204 26.227 0.672698C26.1674 0.601192 26.0936 0.541512 26.0097 0.497067C25.9259 0.452622 25.8336 0.42428 25.7381 0.413662C25.6427 0.403044 25.546 0.410357 25.4536 0.435183C25.3612 0.460009 25.2748 0.501861 25.1994 0.558351C24.8044 0.865454 24.4118 1.18127 24.0513 1.51451C23.1167 2.34959 22.2967 3.29282 21.6103 4.322C21.3416 4.72712 21.1143 5.15401 20.8686 5.57002C20.763 5.75951 20.639 5.94247 20.554 6.13631C19.8412 7.59623 19.3762 9.15389 19.1763 10.7516C19.0208 11.9928 19.0286 13.2475 19.1992 14.4869C19.3694 15.8266 19.747 17.1352 20.3198 18.3704C20.6773 19.136 21.0853 19.8794 21.5414 20.5963C22.5204 22.1004 23.7729 23.4278 25.2407 24.5168C26.6865 25.6027 28.3174 26.4461 30.0629 27.0106C31.0675 27.3392 32.1046 27.5705 33.1583 27.7011C34.6467 27.887 36.1551 27.8767 37.6406 27.6706C39.2529 27.4576 40.8193 27.0033 42.2814 26.3246C43.0736 25.9521 43.8268 25.5013 44.5777 25.0678C44.665 25.0198 44.7406 24.9546 44.7994 24.8767C44.8581 24.7988 44.8987 24.7099 44.9185 24.616C44.9383 24.522 44.9367 24.4252 44.914 24.3319C44.8913 24.2385 44.8478 24.1508 44.7866 24.0746" fill="#54616C"/>
<path d="M9.65538 27.3141C10.7622 28.0648 11.8713 28.8119 12.9827 29.5553C13.4922 29.9037 13.8356 30.4291 13.9379 31.0168C14.225 32.2997 14.5396 33.5782 14.8404 34.8611C15.0195 35.6219 15.1971 36.3828 15.3731 37.1436C15.3987 37.2328 15.4049 37.326 15.3914 37.4175C15.3779 37.509 15.3449 37.5969 15.2944 37.676C15.2439 37.755 15.1771 37.8235 15.0978 37.8773C15.0186 37.931 14.9287 37.9689 14.8335 37.9887C14.7349 38.0096 14.6329 38.0119 14.5334 37.9954C14.4338 37.9789 14.3387 37.944 14.2534 37.8926C14.1681 37.8412 14.0943 37.7744 14.0363 37.696C13.9782 37.6175 13.937 37.529 13.915 37.4355L13.5246 35.7606C13.171 34.2635 12.8181 32.7672 12.466 31.2716C12.4531 31.1853 12.422 31.1022 12.3747 31.0274C12.3274 30.9526 12.2647 30.8875 12.1905 30.836C11.8805 30.6182 11.5728 30.4004 11.272 30.1826C10.9711 29.9648 10.5946 29.6882 10.2501 29.453C9.53827 28.9607 8.82413 28.475 8.10539 27.9893L7.98599 27.6953C8.13754 26.5083 8.27761 25.3191 8.42458 24.1298C8.5348 23.2303 8.6542 22.3264 8.76442 21.4269L8.7782 21.1154L8.81035 21.0327C8.86546 20.6232 8.91598 20.2159 8.9665 19.8064C8.99865 19.532 9.0262 19.2554 9.06065 18.9352L7.72192 19.5407L7.33384 19.7389L7.80918 20.1941L7.32696 19.7498C7.02844 19.8761 6.72533 19.9981 6.42911 20.131C5.76319 20.4286 5.09957 20.7321 4.43824 21.0414L4.30046 21.2113C4.11676 22.1021 3.94454 22.9907 3.77002 23.8837V23.9992L3.54039 24.9074C3.4949 25.084 3.37929 25.2372 3.21766 25.3349C3.05604 25.4327 2.86087 25.4675 2.67285 25.4321C2.48483 25.3967 2.31846 25.2939 2.20843 25.145C2.09841 24.9961 2.05321 24.8127 2.08226 24.633C2.30729 23.512 2.5285 22.3903 2.74588 21.2679C2.80007 20.9112 2.94965 20.5736 3.18037 20.2873C3.4111 20.0009 3.71529 19.7754 4.06394 19.6322C4.73905 19.3316 5.40727 19.0245 6.07778 18.7196L6.14437 18.6499L6.33726 18.6042C7.03992 18.2927 7.74029 17.9725 8.44295 17.6611C8.64044 17.5761 8.85526 17.5335 9.07209 17.5363C9.28893 17.5392 9.50244 17.5873 9.6974 17.6774C9.89236 17.7675 10.064 17.8972 10.2 18.0574C10.336 18.2176 10.4331 18.4043 10.4843 18.6042C10.5175 18.8476 10.5106 19.0945 10.4637 19.336C10.358 20.2682 10.234 21.2026 10.1261 22.1348V22.4114C10.0894 22.6815 10.048 22.9537 10.0113 23.2238C9.89649 24.1284 9.78321 25.0316 9.67146 25.9333C9.62324 26.3297 9.57731 26.7261 9.54286 27.1225L9.65538 27.3141ZM7.1111 34.6149C6.684 35.5929 6.27526 36.5752 5.85963 37.5488C5.78671 37.7183 5.64903 37.8556 5.47408 37.9331C5.29913 38.0107 5.09979 38.0227 4.91586 37.9669C4.738 37.9124 4.58999 37.7936 4.504 37.6361C4.41801 37.4787 4.40098 37.2955 4.45661 37.1262C4.56683 36.7647 4.71838 36.414 4.85616 36.0633C5.25571 35.0469 5.65756 34.0305 6.06171 33.0141C6.13978 32.8159 6.22474 32.6155 6.29133 32.4129L6.32119 32.2387L6.46815 31.9686C6.81259 31.0974 7.15703 30.2458 7.49229 29.3876L7.55658 29.3092L8.85168 30.1957L8.91139 30.3939C8.49499 31.3653 8.08167 32.3382 7.6714 33.3125L7.65991 33.5172C7.47851 33.8809 7.28103 34.2403 7.12029 34.6062L7.1111 34.6149ZM11.8713 20.2508L11.9057 20.1854C12.2226 20.4402 12.5326 20.6842 12.838 20.9347C13.582 21.538 14.3214 22.1457 15.0631 22.7468C15.3318 22.9646 15.4856 23.2107 15.3731 23.5548C15.3334 23.6653 15.2659 23.7649 15.1764 23.845C15.0869 23.9251 14.9781 23.9832 14.8595 24.0144C14.7409 24.0455 14.6161 24.0487 14.4959 24.0236C14.3757 23.9986 14.2638 23.9461 14.1699 23.8707C13.3799 23.1897 12.5923 22.5058 11.807 21.8189L11.7106 21.6011C11.7542 21.1503 11.8139 20.6994 11.8713 20.2486V20.2508ZM12.8334 24.5916C13.272 24.9771 13.7175 25.3256 14.3582 25.404C14.9087 25.4779 15.4684 25.351 15.9242 25.049C16.1932 24.8783 16.4183 24.6525 16.5827 24.3881C16.7471 24.1237 16.8467 23.8276 16.874 23.5218C16.9014 23.2159 16.8558 22.9082 16.7407 22.6213C16.6255 22.3345 16.4438 22.0759 16.209 21.8647C15.8347 21.5184 15.4213 21.2113 15.0241 20.8846C14.0596 20.1005 13.0929 19.3164 12.1354 18.5279L11.9425 18.2274C11.7995 17.6738 11.4697 17.1797 11.0033 16.8203C9.99523 16.0559 8.89531 15.9143 7.71732 16.4588C7.32007 16.6439 6.91822 16.8138 6.52326 16.9946C6.064 17.2124 5.60475 17.4302 5.12942 17.648C4.53927 17.9094 3.94454 18.1642 3.35669 18.4364C2.87269 18.6437 2.44633 18.9552 2.11148 19.3462C1.77664 19.7371 1.54255 20.1967 1.42782 20.6885C1.15456 21.8233 0.968561 22.9777 0.720563 24.1211C0.572308 24.6732 0.637478 25.2573 0.904264 25.7677C1.12523 26.1387 1.45778 26.4388 1.85944 26.6297C2.26109 26.8206 2.71362 26.8936 3.15921 26.8393C3.57495 26.781 3.96468 26.6118 4.28299 26.3516C4.60131 26.0913 4.83512 25.7506 4.9572 25.3692C5.11105 24.8007 5.2029 24.217 5.31771 23.6376C5.40038 23.2172 5.47156 22.7925 5.54734 22.3722C5.55206 22.2609 5.59333 22.1539 5.66539 22.066C5.73745 21.9781 5.83668 21.9138 5.94919 21.8821L6.17882 21.7492L6.34645 21.71C6.65874 21.5728 6.97103 21.4313 7.29481 21.2744V21.3594C7.18688 22.2306 7.06518 23.1171 6.97103 23.9948C6.83325 25.0838 6.70007 26.1728 6.56229 27.2619C6.55065 27.5374 6.5091 27.8111 6.43829 28.0786C6.17882 28.8039 5.87341 29.5161 5.59097 30.2327C5.46697 30.5485 5.36134 30.8687 5.23964 31.1867L5.20519 31.2237L4.3372 33.4018C3.93995 34.408 3.55647 35.4186 3.14773 36.4162C2.97158 36.8159 2.92133 37.2554 3.00306 37.6816C3.0916 38.1099 3.31934 38.5011 3.6543 38.8003C3.98926 39.0995 4.41461 39.2917 4.87061 39.3498C5.32662 39.408 5.79038 39.3292 6.19676 39.1245C6.60314 38.9198 6.93172 38.5996 7.13636 38.2087C7.46014 37.5553 7.71962 36.8845 8.00206 36.2202C8.57613 34.8785 9.14714 33.5361 9.71508 32.193C9.83908 31.9055 9.94471 31.6114 10.0618 31.3217L10.2616 31.1039L10.3213 31.1867C10.5349 31.337 10.7553 31.4807 10.962 31.6397L11.1204 31.8684C11.2789 32.5022 11.4281 33.136 11.5797 33.772C11.8598 34.97 12.1445 36.1679 12.4178 37.368C12.5372 37.8994 12.7048 38.396 13.1411 38.7815C13.3689 38.9905 13.6414 39.1504 13.9402 39.2505C14.239 39.3505 14.557 39.3883 14.8725 39.3612C15.1881 39.3341 15.4938 39.2428 15.7688 39.0936C16.0438 38.9443 16.2817 38.7405 16.4661 38.4962C16.6559 38.2531 16.7857 37.9727 16.8461 37.6756C16.9065 37.3786 16.896 37.0725 16.8152 36.7799C16.3284 34.7253 15.8454 32.6707 15.3662 30.6161C15.1735 29.7288 14.6242 28.9476 13.8346 28.438C12.9574 27.8608 12.0917 27.2684 11.2146 26.6847L11.1066 26.4669C11.1594 26.0901 11.2054 25.7133 11.2467 25.3343C11.311 24.7724 11.3684 24.2083 11.4281 23.6463L11.4947 23.4677C11.954 23.8598 12.388 24.2366 12.8242 24.6199" fill="#54616C"/>
<path d="M12.0095 10.9984C12.312 11.007 12.6096 11.0743 12.8837 11.1962C13.1578 11.318 13.4027 11.4919 13.6032 11.707C13.8038 11.9221 13.9557 12.1739 14.0497 12.4469C14.1436 12.7198 14.1776 13.0081 14.1496 13.2941C14.107 13.8145 13.8566 14.3 13.4495 14.6513C13.0424 15.0026 12.5092 15.1934 11.9589 15.1846C11.3737 15.1782 10.815 14.9516 10.4059 14.5546C9.99684 14.1576 9.77077 13.6227 9.77747 13.0675C9.78417 12.5124 10.0231 11.9825 10.4417 11.5945C10.8602 11.2065 11.4242 10.992 12.0095 10.9984ZM11.9383 16.5742C12.6629 16.5707 13.3702 16.3641 13.9713 15.9803C14.5724 15.5966 15.0405 15.0528 15.3166 14.4174C15.5927 13.7819 15.6646 13.0832 15.5232 12.4092C15.3817 11.7351 15.0333 11.1158 14.5218 10.629C14.0102 10.1423 13.3583 9.80988 12.6481 9.67365C11.9379 9.53741 11.201 9.60341 10.5302 9.86334C9.85947 10.1233 9.2847 10.5655 8.87823 11.1345C8.47176 11.7035 8.25175 12.3737 8.24585 13.061C8.24766 13.9907 8.63721 14.882 9.32945 15.5402C10.0217 16.1984 10.9604 16.5702 11.9406 16.5742" fill="#54616C"/>
<path d="M28.3498 14.7469C28.7312 15.8361 29.3991 16.8151 30.2902 17.5914C31.5472 18.7067 33.1798 19.3641 34.8988 19.4471C35.115 19.4492 35.3312 19.4405 35.5464 19.421L35.7531 19.4493C36.0791 19.4166 36.4075 19.3905 36.7336 19.336C36.9254 19.2922 37.1135 19.2347 37.2962 19.164L37.3765 19.1901C38.0775 19.0141 38.7421 18.7269 39.3421 18.3407C39.426 18.2867 39.4962 18.2158 39.5479 18.1331C39.5996 18.0504 39.6314 17.9579 39.641 17.8622C39.6507 17.7665 39.6379 17.67 39.6037 17.5795C39.5695 17.489 39.5147 17.4068 39.4432 17.3388L39.2893 17.2756L39.2181 17.1798C39.1012 17.1192 38.9682 17.0921 38.8353 17.1018C38.7025 17.1114 38.5754 17.1574 38.4696 17.2342C37.2585 17.9492 35.8165 18.2267 34.4074 18.0161L34.0194 17.9726L33.8586 17.9094C33.1931 17.746 32.5623 17.4749 31.994 17.1079C30.813 16.3614 29.9617 15.23 29.6013 13.9279C29.3767 13.1307 29.3508 12.2948 29.5255 11.4864C29.7592 10.2658 30.4231 9.15685 31.4085 8.34126C31.4867 8.28178 31.5515 8.20801 31.5991 8.12432C31.6467 8.04063 31.676 7.94873 31.6855 7.85406C31.6949 7.7594 31.6842 7.66391 31.6539 7.57325C31.6237 7.48259 31.5746 7.39861 31.5095 7.3263C31.4428 7.25651 31.3618 7.20024 31.2716 7.16087C31.1813 7.1215 31.0836 7.09984 30.9843 7.0972C30.885 7.09455 30.7862 7.11098 30.6937 7.14548C30.6013 7.17999 30.5171 7.23186 30.4463 7.29798C29.6284 7.97106 28.9804 8.80978 28.5499 9.75223C28.1195 10.6947 27.9177 11.7168 27.9595 12.7431C27.977 13.4258 28.1064 14.1018 28.343 14.7469" fill="#54616C"/>
<path d="M24.2442 8.77904L24.1385 8.94674C23.964 9.60015 23.7482 10.2536 23.6379 10.9309C23.3652 12.5838 23.5092 14.2743 24.0582 15.8642C24.6786 17.7028 25.7901 19.3579 27.2845 20.6685C28.779 21.9792 30.6055 22.9007 32.5865 23.3436L32.8644 23.3719L32.9539 23.4307C33.427 23.4961 33.9 23.5788 34.3753 23.6202C35.8494 23.7355 37.3331 23.5877 38.7498 23.1846C38.9359 23.1213 39.1183 23.0485 39.2963 22.9668H39.4226C40.3137 22.6526 41.1617 22.238 41.9485 21.7318C42.0333 21.684 42.1069 21.6202 42.1649 21.5445C42.2229 21.4688 42.2641 21.3826 42.286 21.2914C42.3078 21.2001 42.3098 21.1055 42.292 21.0135C42.2741 20.9214 42.2366 20.8338 42.1819 20.7559C42.1272 20.6779 42.0564 20.6114 41.9737 20.5603C41.8911 20.5091 41.7983 20.4745 41.7011 20.4584C41.6038 20.4423 41.5042 20.4452 41.4082 20.4668C41.3121 20.4884 41.2217 20.5283 41.1425 20.584C40.2572 21.1429 39.2901 21.5751 38.2721 21.8669L38.1918 21.9344H38.0471C36.8556 22.2445 35.6152 22.35 34.3845 22.2459H34.0585L33.9643 22.2001C33.2019 22.0966 32.4525 21.92 31.7277 21.673C29.3561 20.8538 27.3861 19.2341 26.1945 17.1238C25.0028 15.0134 24.673 12.5604 25.2683 10.234L25.3395 9.82885L25.4428 9.65025C25.735 8.75658 26.1636 7.9083 26.715 7.13243C27.2898 6.32166 27.986 5.59456 28.7816 4.974C28.9251 4.86154 29.0171 4.70081 29.0385 4.52545C29.0599 4.35008 29.009 4.17365 28.8964 4.03308C28.7743 3.88732 28.597 3.79254 28.4022 3.76895C28.2075 3.74535 28.0108 3.7948 27.8539 3.90676C27.6794 4.0418 27.5072 4.17901 27.3395 4.32494C26.0127 5.46982 24.9797 6.88764 24.3199 8.46975L24.2442 8.77904Z" fill="#54616C"/>
</g>
<defs>
<clipPath id="clip0">
<rect width="44.2975" height="39" fill="white" transform="translate(0.640625 0.397949)"/>
</clipPath>
</defs>
</svg>
