<svg width="42" height="36" viewBox="0 0 42 36" fill="none" xmlns="http://www.w3.org/2000/svg">
<path d="M25.6304 0.104664C25.4098 -0.0381154 25.1363 -0.0381188 24.9158 0.125058L10.1209 10.6704H1.28097C0.892796 10.6704 0.575195 11.0375 0.575195 11.4862V23.5205C0.575195 23.9693 0.892796 24.3364 1.28097 24.3364H10.1297L24.9246 34.8817C25.0393 34.9633 25.1628 35.0041 25.2951 35.0041C25.4098 35.0041 25.5333 34.9735 25.6392 34.9021C25.8598 34.7593 26.0009 34.484 26.0009 34.1882V0.81856C25.9921 0.522802 25.8509 0.247444 25.6304 0.104664ZM1.98675 12.3021H9.618V22.7046H1.98675V12.3021ZM24.5805 32.7298L11.0296 23.0616V11.9452L24.5805 2.27695V32.7298Z" fill="#54616C"/>
<path d="M40.7694 16.6975H31.1972C30.8091 16.6975 30.4915 17.0647 30.4915 17.5134C30.4915 17.9621 30.8091 18.3293 31.1972 18.3293H40.7694C41.1576 18.3293 41.4752 17.9621 41.4752 17.5134C41.4752 17.0647 41.1576 16.6975 40.7694 16.6975Z" fill="#54616C"/>
<path d="M31.1972 10.4457C31.2678 10.4457 31.3472 10.4355 31.4177 10.4049L36.4288 8.48755C36.7993 8.34477 37.0022 7.88583 36.8787 7.45749C36.7552 7.02915 36.3582 6.79458 35.9877 6.93736L30.9766 8.85469C30.6061 8.99747 30.4032 9.45641 30.5267 9.88475C30.6237 10.2315 30.8972 10.4457 31.1972 10.4457Z" fill="#54616C"/>
<path d="M36.4288 26.529L31.4177 24.6117C31.0384 24.4689 30.6502 24.7035 30.5267 25.1318C30.4032 25.5601 30.6061 26.0191 30.9766 26.1618L35.9877 28.0791C36.0582 28.1097 36.1376 28.1199 36.2082 28.1199C36.5082 28.1199 36.7817 27.9058 36.8787 27.559C36.9934 27.1409 36.7993 26.6718 36.4288 26.529Z" fill="#54616C"/>
</svg>
