<svg width="41" height="33" viewBox="0 0 41 33" fill="none" xmlns="http://www.w3.org/2000/svg">
<path d="M30.7556 27.6659H26.4918C26.3756 27.6723 26.2594 27.6547 26.1502 27.6141C26.0411 27.5736 25.9412 27.5109 25.8567 27.43C25.7723 27.349 25.705 27.2515 25.6591 27.1434C25.6131 27.0352 25.5894 26.9188 25.5894 26.8011C25.5894 26.6833 25.6131 26.5669 25.6591 26.4587C25.705 26.3506 25.7723 26.2531 25.8567 26.1722C25.9412 26.0912 26.0411 26.0285 26.1502 25.988C26.2594 25.9474 26.3756 25.9298 26.4918 25.9362H30.7632C32.99 25.9478 35.133 25.0779 36.7347 23.5123C38.3365 21.9466 39.27 19.8093 39.3361 17.5566C39.4022 15.3039 38.5956 13.1143 37.0885 11.4553C35.5813 9.79623 33.4931 8.79919 31.2696 8.67701C31.115 8.66852 30.9657 8.6175 30.8376 8.52944C30.7096 8.44138 30.6077 8.31963 30.5429 8.1773C29.5257 5.99455 27.8408 4.20154 25.7377 3.06399C23.6347 1.92643 21.2256 1.50485 18.8672 1.86173C16.5089 2.2186 14.327 3.33494 12.6447 5.04531C10.9624 6.75568 9.86929 8.96907 9.52738 11.3575C9.49817 11.5635 9.39663 11.7521 9.24133 11.8885C9.08603 12.025 8.88736 12.1003 8.68169 12.1007C6.86857 12.0823 5.12251 12.7937 3.82761 14.0783C3.18645 14.7143 2.67535 15.472 2.32349 16.308C1.97164 17.1439 1.78592 18.0419 1.77694 18.9505C1.76796 19.8591 1.9359 20.7606 2.27117 21.6036C2.60644 22.4465 3.10246 23.2144 3.73093 23.8633C5.00018 25.1738 6.73184 25.9204 8.54496 25.9387H14.5255C14.7441 25.9508 14.9499 26.0472 15.1004 26.208C15.2509 26.3689 15.3348 26.5821 15.3348 26.8036C15.3348 27.0252 15.2509 27.2383 15.1004 27.3992C14.9499 27.5601 14.7441 27.6565 14.5255 27.6685H8.54243C6.32768 27.6684 4.19953 26.7977 2.6068 25.2402C1.01407 23.6826 0.0812514 21.5599 0.00506159 19.3197C-0.0711282 17.0795 0.715269 14.8969 2.19841 13.2322C3.68155 11.5675 5.74551 10.5508 7.95501 10.3965C8.47863 7.76728 9.79556 5.36731 11.7241 3.52773C13.6526 1.68816 16.0977 0.499657 18.722 0.126216C21.3462 -0.247226 24.0203 0.2128 26.3753 1.44282C28.7303 2.67283 30.65 4.61222 31.8697 6.99338C34.4746 7.28181 36.8712 8.56953 38.5667 10.5917C40.2621 12.6138 41.1275 15.2166 40.9848 17.8648C40.8421 20.513 39.7022 23.0051 37.7995 24.8286C35.8968 26.6522 33.376 27.6685 30.7556 27.6685V27.6659Z" fill="#54616C"/>
<path d="M20.5059 33C20.3925 32.9994 20.2803 32.9777 20.1757 32.9362C20.0712 32.8947 19.9764 32.8342 19.8968 32.7581C19.8171 32.6821 19.7542 32.592 19.7117 32.4931C19.6691 32.3941 19.6477 32.2882 19.6487 32.1814V19.5897C19.6423 19.4793 19.6599 19.3688 19.7005 19.265C19.741 19.1612 19.8036 19.0662 19.8844 18.9859C19.9652 18.9056 20.0626 18.8416 20.1705 18.7979C20.2785 18.7542 20.3948 18.7317 20.5123 18.7317C20.6299 18.7317 20.7462 18.7542 20.8541 18.7979C20.9621 18.8416 21.0595 18.9056 21.1403 18.9859C21.2211 19.0662 21.2837 19.1612 21.3242 19.265C21.3647 19.3688 21.3823 19.4793 21.3759 19.5897V32.1814C21.3769 32.2892 21.3551 32.3961 21.3118 32.4958C21.2684 32.5956 21.2044 32.6862 21.1234 32.7624C21.0424 32.8386 20.9461 32.8989 20.8401 32.9397C20.7341 32.9805 20.6205 33.001 20.5059 33Z" fill="#54616C"/>
<path d="M24.8221 24.0578C24.7083 24.0578 24.5957 24.0364 24.4907 23.9951C24.3857 23.9538 24.2905 23.8933 24.2106 23.817L20.5057 20.3284L16.8008 23.8146C16.6366 23.9559 16.4208 24.0321 16.1984 24.0276C15.976 24.023 15.764 23.9379 15.6065 23.79C15.449 23.6421 15.3581 23.4428 15.3528 23.2335C15.3474 23.0242 15.428 22.821 15.5778 22.6662L19.9044 18.607C20.0673 18.4555 20.287 18.3706 20.516 18.3706C20.7449 18.3706 20.9646 18.4555 21.1275 18.607L25.4439 22.6686C25.5636 22.7829 25.6449 22.9278 25.6775 23.0852C25.7102 23.2427 25.6928 23.4058 25.6276 23.554C25.5623 23.7022 25.4521 23.8291 25.3107 23.9187C25.1692 24.0083 25.0029 24.0567 24.8324 24.0578H24.8221Z" fill="#54616C"/>
</svg>
