<svg width="230" height="60" viewBox="0 0 230 60" fill="none" xmlns="http://www.w3.org/2000/svg">
<g clip-path="url(#clip0)">
<path d="M221.222 0C219.486 4.73741e-06 217.789 0.519246 216.345 1.49213C214.901 2.46501 213.775 3.84787 213.11 5.46602C212.445 7.08417 212.269 8.865 212.607 10.5835C212.944 12.3021 213.778 13.8812 215.005 15.1214C216.231 16.3616 217.794 17.2073 219.496 17.5515C221.199 17.8958 222.964 17.7233 224.569 17.0557C226.175 16.3881 227.548 15.2554 228.515 13.8007C229.483 12.346 230.001 10.6347 230.005 8.88278C230.005 6.53239 229.08 4.27826 227.433 2.61628C225.786 0.9543 223.552 0.0206092 221.222 0.0206092V0ZM217.709 13.3551C217.573 13.491 217.39 13.5673 217.199 13.5673C217.007 13.5673 216.824 13.491 216.688 13.3551C215.804 12.4613 215.202 11.3232 214.958 10.0844C214.715 8.84571 214.841 7.56196 215.32 6.39535C215.799 5.22873 216.61 4.23157 217.651 3.52981C218.691 2.82806 219.915 2.45319 221.166 2.45255C221.349 2.46799 221.519 2.55203 221.643 2.68802C221.767 2.82401 221.835 3.00202 221.835 3.18677C221.835 3.37153 221.767 3.54954 221.643 3.68553C221.519 3.82152 221.349 3.90556 221.166 3.921C220.202 3.92014 219.259 4.20796 218.458 4.74801C217.656 5.28807 217.031 6.05607 216.661 6.95478C216.292 7.85348 216.196 8.84248 216.384 9.79655C216.573 10.7506 217.037 11.6268 217.719 12.3143C217.852 12.4526 217.926 12.6373 217.926 12.8295C217.926 13.0218 217.852 13.2065 217.719 13.3448L217.709 13.3551ZM219.813 11.3302C219.677 11.4649 219.493 11.5403 219.302 11.5403C219.111 11.5403 218.928 11.4649 218.792 11.3302C218.471 11.0042 218.217 10.6174 218.044 10.1922C217.871 9.76688 217.784 9.31142 217.786 8.85187C217.776 7.94215 218.125 7.06574 218.754 6.41476C219.384 5.76378 220.244 5.39136 221.146 5.37913C221.246 5.37062 221.348 5.38327 221.443 5.4163C221.539 5.44933 221.627 5.50202 221.701 5.57103C221.775 5.64004 221.835 5.72387 221.875 5.81722C221.916 5.91057 221.937 6.01141 221.937 6.11335C221.937 6.2153 221.916 6.31614 221.875 6.40949C221.835 6.50284 221.775 6.58667 221.701 6.65568C221.627 6.72469 221.539 6.77737 221.443 6.8104C221.348 6.84344 221.246 6.85609 221.146 6.84757C220.631 6.86108 220.143 7.07936 219.787 7.45482C219.431 7.83028 219.237 8.33245 219.246 8.85187C219.244 9.38286 219.445 9.89412 219.808 10.2791C219.943 10.4161 220.018 10.6013 220.018 10.7943C220.018 10.9873 219.943 11.1725 219.808 11.3096L219.813 11.3302ZM223.77 10.6707C223.77 10.8538 223.698 11.0294 223.57 11.1589C223.442 11.2884 223.268 11.3611 223.086 11.3611C222.905 11.3611 222.731 11.2884 222.602 11.1589C222.474 11.0294 222.402 10.8538 222.402 10.6707V9.69171H221.381C221.209 9.67674 221.049 9.59725 220.932 9.46894C220.815 9.34063 220.751 9.17284 220.751 8.99871C220.751 8.82459 220.815 8.65679 220.932 8.52849C221.049 8.40018 221.209 8.32068 221.381 8.30571H223.081C223.171 8.30571 223.26 8.32357 223.343 8.35827C223.426 8.39296 223.501 8.44382 223.565 8.50793C223.628 8.57204 223.679 8.64815 223.713 8.73192C223.748 8.81569 223.765 8.90547 223.765 8.99614L223.77 10.6707Z" fill="#DA2128"/>
<path d="M4.70294 41.3431H0V19.7596H13.7871V24.0412H4.70294V41.3431ZM14.119 30.523C14.3233 24.3864 19.2969 19.3628 25.8994 19.3628C32.5019 19.3628 37.0618 24.3401 36.8423 30.5487C36.6227 36.7574 31.6593 41.7037 25.0619 41.7037C18.4645 41.7037 13.8944 36.7419 14.119 30.5487V30.523ZM31.9249 30.5487C32.0627 26.8493 29.4738 23.7681 25.6849 23.7681C21.896 23.7681 19.1641 26.7875 19.0467 30.5487C18.9292 34.31 21.4926 37.3242 25.2764 37.3242C29.0602 37.3242 31.8023 34.31 31.9147 30.5487H31.9249ZM135.252 24.1391H128.741V19.7596H146.46V24.1391H139.955V41.3431H135.252V24.1391ZM187.566 41.3431H182.971V27.1893L173.59 41.3431H169.163V19.775H173.759V33.9081L183.011 19.9966C183.061 19.9227 183.128 19.8621 183.207 19.82C183.285 19.7778 183.372 19.7553 183.461 19.7544H187.546V41.3431H187.566ZM190.844 19.7596H195.91L201.527 28.8845L207.144 19.7596H212.215V41.3431H207.573V27.2512L201.553 36.4689L195.476 27.3491V41.3431H190.88L190.844 19.7596ZM55.9145 19.7596V41.2967C55.9145 41.3081 55.9104 41.3192 55.9029 41.3278C55.8953 41.3363 55.8849 41.3418 55.8736 41.3431H51.2779C51.2657 41.3431 51.254 41.3382 51.2454 41.3295C51.2368 41.3208 51.232 41.309 51.232 41.2967V24.0412H45.0635V25.6848C45.0635 38.3753 43.021 41.611 38.124 41.611H36.301C36.5104 40.1168 36.5257 38.8029 36.684 37.489C39.2371 37.489 40.6567 35.8557 40.6567 24.237V19.7596H55.9145ZM107.106 30.5487C107.175 27.5276 108.428 24.6573 110.59 22.5658C112.752 20.4743 115.646 19.3319 118.641 19.3886C122.68 19.3886 124.886 20.9343 126.811 22.9025L123.895 26.1692C122.297 24.6595 120.918 23.7681 118.472 23.7681C114.898 23.7681 112.166 26.7875 112.043 30.5487C111.921 34.31 114.341 37.3242 118.008 37.3242C120.454 37.3242 121.985 36.3452 123.717 34.7995L126.602 38.0404C124.314 40.4156 121.827 41.7037 117.706 41.7037C111.405 41.7037 106.901 36.8089 107.121 30.5487H107.106ZM69.7016 27.0966H64.9067V19.8059C64.9067 19.7936 64.9019 19.7818 64.8933 19.7731C64.8847 19.7644 64.873 19.7596 64.8608 19.7596H60.2651C60.2524 19.7595 60.2401 19.7642 60.2307 19.7728C60.2212 19.7814 60.2153 19.7932 60.214 19.8059V41.2452C60.2152 41.2707 60.2259 41.2949 60.2438 41.313C60.2617 41.3311 60.2857 41.3418 60.311 41.3431H68.9254C73.9296 41.3431 77.1466 38.535 77.3049 34.0988C77.4479 29.8738 74.6701 27.0966 69.7169 27.0966H69.7016ZM69.0122 37.0511H64.9272V31.1619H69.191C71.5399 31.1619 72.699 32.1924 72.6326 34.0318C72.5663 36.0361 71.3356 37.0511 69.0173 37.0511H69.0122ZM94.4878 19.3886H89.7797C83.4275 19.538 79.3985 23.4641 79.2198 28.7505C79.0309 34.2173 83.1824 38.3444 89.7797 38.3444V41.5595C89.7797 41.5718 89.7846 41.5836 89.7932 41.5923C89.8018 41.601 89.8135 41.6058 89.8257 41.6058H94.4214C94.4279 41.6066 94.4344 41.6059 94.4406 41.6039C94.4467 41.6019 94.4524 41.5986 94.4573 41.5942C94.4621 41.5898 94.4659 41.5845 94.4686 41.5785C94.4712 41.5725 94.4725 41.566 94.4725 41.5595V38.3392C100.901 38.2516 104.935 34.1297 105.119 28.7918C105.298 23.3663 101.003 19.3886 94.4725 19.3886H94.4878ZM84.0249 28.8536C84.1321 25.7621 86.4351 23.7012 89.7644 23.6136V34.1297C86.3891 34.073 83.9228 32.0687 84.0249 28.8587V28.8536ZM100.263 28.8587C100.141 32.0687 97.8376 34.0678 94.4725 34.1297V23.6136C97.8478 23.6754 100.36 25.7261 100.263 28.8536V28.8587ZM158.358 19.7596H149.534V41.3121C149.531 41.3168 149.53 41.3222 149.53 41.3276C149.53 41.333 149.531 41.3384 149.534 41.3431H154.13C154.137 41.3418 154.144 41.338 154.148 41.3324C154.153 41.3267 154.156 41.3195 154.155 41.3121V34.8665H157.362C162.152 34.8665 166.094 32.2902 166.268 27.2821C166.426 22.8149 163.439 19.7596 158.343 19.7596H158.358ZM157.658 30.6415H154.155V24.0412H157.801C160.145 24.0412 161.575 25.1851 161.503 27.313C161.432 29.2246 160.012 30.6415 157.658 30.6415Z" fill="#3D444D"/>
<path d="M40.8557 58.6398L41.1417 58.0936C41.2351 58.2039 41.3498 58.2937 41.4789 58.3575C41.608 58.4213 41.7487 58.4578 41.8923 58.4646C42.3264 58.4646 42.5102 58.2533 42.8115 57.6762L42.9136 57.4856L40.8047 53.4461H41.586L43.3068 56.8725L45.0276 53.4461H45.8089L43.414 58.0009C43.0668 58.6552 42.7042 59.0829 41.923 59.0829C41.724 59.0902 41.5259 59.0544 41.3418 58.978C41.1577 58.9015 40.992 58.7862 40.8557 58.6398Z" fill="#3D444D"/>
<path d="M51.6251 58.9798V54.4251L49.7613 58.9798H49.4805L47.6218 54.4251V58.9798H46.9375V53.4461H47.9179L49.6183 57.6093L51.329 53.4461H52.3094V58.9798H51.6251Z" fill="#3D444D"/>
<path d="M57.9008 58.9798V56.4397H54.694V58.9798H54.0098V53.4461H54.694V55.8265H57.9008V53.4461H58.58V58.9798H57.9008Z" fill="#3D444D"/>
<path d="M60.9648 53.4461V55.6462H62.4967C62.7214 55.6336 62.9462 55.6673 63.1575 55.7454C63.3688 55.8235 63.5621 55.9442 63.7255 56.1002C63.889 56.2562 64.0192 56.4443 64.1082 56.6528C64.1972 56.8613 64.2431 57.086 64.2431 57.313C64.2431 57.54 64.1972 57.7647 64.1082 57.9732C64.0192 58.1817 63.889 58.3698 63.7255 58.5258C63.5621 58.6818 63.3688 58.8025 63.1575 58.8806C62.9462 58.9587 62.7214 58.9924 62.4967 58.9798H60.2959V53.4461H60.9648ZM60.9648 56.2593V58.3461H62.4048C62.6818 58.3461 62.9474 58.235 63.1432 58.0374C63.3391 57.8398 63.4491 57.5718 63.4491 57.2924C63.4491 57.0129 63.3391 56.7449 63.1432 56.5473C62.9474 56.3497 62.6818 56.2387 62.4048 56.2387L60.9648 56.2593ZM64.7997 53.4461H65.484V58.9798H64.7997V53.4461Z" fill="#3D444D"/>
<path d="M67.1787 58.9798V53.4461H70.7736V54.0593H67.863V55.842H70.7174V56.4603H67.863V58.3667H70.7736V58.9798H67.1787Z" fill="#3D444D"/>
<path d="M74.8076 58.9798V53.4461H77.0136C77.4524 53.4461 77.8732 53.622 78.1834 53.9351C78.4937 54.2481 78.668 54.6727 78.668 55.1155C78.668 55.5582 78.4937 55.9829 78.1834 56.2959C77.8732 56.609 77.4524 56.7849 77.0136 56.7849H75.4817V58.9798H74.8076ZM78.0246 55.1155C78.025 54.9739 77.9964 54.8337 77.9407 54.7037C77.8849 54.5738 77.8032 54.4568 77.7007 54.3601C77.5982 54.2634 77.477 54.1891 77.3447 54.1417C77.2124 54.0944 77.0719 54.0751 76.9319 54.085H75.4919V56.1924H76.9319C77.0719 56.2023 77.2124 56.183 77.3447 56.1356C77.477 56.0883 77.5982 56.014 77.7007 55.9173C77.8032 55.8206 77.8849 55.7036 77.9407 55.5736C77.9964 55.4436 78.025 55.3035 78.0246 55.1619" fill="#3D444D"/>
<path d="M80.0625 58.9798V53.4461H83.6574V54.0593H80.7468V55.842H83.6012V56.4603H80.7468V58.3667H83.6574V58.9798H80.0625Z" fill="#3D444D"/>
<path d="M91.7614 53.4461V58.9798H85.1641V53.4461H85.8432V58.3667H88.1257V53.4461H88.8049V58.3667H91.0772V53.4461H91.7614Z" fill="#3D444D"/>
<path d="M93.4561 58.9798V53.4461H97.0509V54.0593H94.1403V55.842H96.9948V56.4603H94.1403V58.3667H97.0509V58.9798H93.4561Z" fill="#3D444D"/>
<path d="M102.449 58.9798V56.4397H99.2368V58.9798H98.5576V53.4461H99.2368V55.8265H102.449V53.4461H103.128V58.9798H102.449Z" fill="#3D444D"/>
<path d="M104.828 58.9798V53.4461H105.512V57.769L108.668 53.4461H109.368V58.9798H108.689V54.5642L105.487 58.9798H104.828Z" fill="#3D444D"/>
<path d="M110.817 58.9798L112.298 56.7231C111.898 56.6978 111.524 56.5153 111.256 56.2148C110.987 55.9143 110.847 55.5196 110.863 55.1155C110.855 54.8875 110.895 54.6603 110.981 54.4489C111.066 54.2376 111.194 54.0468 111.358 53.8892C111.521 53.7315 111.716 53.6105 111.929 53.5342C112.142 53.4578 112.369 53.4278 112.594 53.4461H114.795V58.9798H114.126V56.8003H113.023L111.624 59.0004L110.817 58.9798ZM114.116 56.1769V54.0593H112.666C112.522 54.0491 112.377 54.069 112.241 54.1176C112.105 54.1662 111.981 54.2425 111.875 54.3419C111.77 54.4412 111.686 54.5613 111.628 54.6949C111.57 54.8284 111.541 54.9725 111.541 55.1181C111.541 55.2637 111.57 55.4077 111.628 55.5413C111.686 55.6748 111.77 55.795 111.875 55.8943C111.981 55.9936 112.105 56.0699 112.241 56.1186C112.377 56.1672 112.522 56.187 112.666 56.1769H114.116Z" fill="#3D444D"/>
<path d="M118.651 58.4233C119.31 58.3821 119.673 58.1039 119.913 56.2284L120.25 53.4461H123.605V58.3461H124.115V59.9794H123.421V58.9489H119.336V59.9794H118.651V58.4233ZM119.744 58.3461H122.92V54.0386H120.878L120.607 56.2542C120.464 57.4238 120.168 58.0369 119.765 58.3461" fill="#3D444D"/>
<path d="M125.014 58.4646C125.672 58.4646 126.035 58.1039 126.275 56.2284L126.612 53.4461H129.957V58.9798H129.272V54.0592H127.23L126.959 56.2748C126.663 58.7067 126.004 59.0829 125.024 59.0829L125.014 58.4646Z" fill="#3D444D"/>
<path d="M131.412 58.9798L132.893 56.7231C132.494 56.6965 132.121 56.5135 131.854 56.2131C131.586 55.9127 131.446 55.5188 131.463 55.1155C131.455 54.8877 131.494 54.6607 131.578 54.4493C131.663 54.238 131.791 54.0471 131.954 53.8894C132.117 53.7316 132.312 53.6106 132.525 53.5342C132.737 53.4577 132.964 53.4277 133.189 53.4461H135.395V58.9798H134.711V56.8004H133.608L132.209 59.0004L131.412 58.9798ZM134.711 56.1769V54.0593H133.261C133.117 54.0491 132.972 54.069 132.836 54.1176C132.7 54.1662 132.575 54.2426 132.47 54.3419C132.364 54.4412 132.28 54.5613 132.223 54.6949C132.165 54.8284 132.135 54.9725 132.135 55.1181C132.135 55.2637 132.165 55.4078 132.223 55.5413C132.28 55.6748 132.364 55.795 132.47 55.8943C132.575 55.9936 132.7 56.07 132.836 56.1186C132.972 56.1672 133.117 56.187 133.261 56.1769H134.711Z" fill="#3D444D"/>
<path d="M139.123 58.9798L141.61 56.0739L139.322 53.4461H140.175L142.381 56.0532V53.4461H143.065V56.0532L145.276 53.4461H146.134L143.836 56.0739L146.328 58.9798H145.475L143.392 56.4912L143.065 56.8725V58.9798H142.381V56.8725L142.054 56.4912L139.971 58.9798H139.123Z" fill="#3D444D"/>
<path d="M147.518 58.9798V53.4461H148.202V57.769L151.358 53.4461H152.057V58.9798H151.378V54.5642L148.176 58.9798H147.518Z" fill="#3D444D"/>
<path d="M153.358 58.1658L153.757 57.7278C153.962 57.9647 154.216 58.1534 154.5 58.2806C154.785 58.4079 155.094 58.4707 155.406 58.4646C156.269 58.4646 156.785 58.0679 156.785 57.4341C156.785 56.8004 156.203 56.4552 155.365 56.4552H154.247V55.842H155.365C156.095 55.842 156.698 55.5689 156.698 54.93C156.698 54.2911 156.106 53.982 155.381 53.982C155.089 53.9748 154.798 54.0309 154.53 54.1464C154.261 54.262 154.02 54.4343 153.823 54.6518L153.445 54.2242C153.696 53.9463 154.003 53.726 154.346 53.5785C154.689 53.4309 155.059 53.3594 155.432 53.3689C156.504 53.3689 157.392 53.8841 157.392 54.8424C157.379 55.1634 157.253 55.4691 157.037 55.705C156.821 55.9409 156.529 56.0918 156.213 56.1306C156.553 56.1586 156.872 56.3133 157.106 56.5646C157.34 56.8159 157.473 57.146 157.479 57.4908C157.479 58.4131 156.652 59.088 155.437 59.088C155.049 59.1054 154.663 59.0316 154.308 58.8725C153.954 58.7133 153.641 58.4731 153.394 58.1709" fill="#3D444D"/>
<path d="M162.872 58.9798V56.4397H159.665V58.9798H158.98V53.4461H159.665V55.8265H162.872V53.4461H163.551V58.9798H162.872Z" fill="#3D444D"/>
<path d="M165.252 58.9798V53.4461H165.936V57.769L169.092 53.4461H169.792V58.9798H169.112V54.5642L165.911 58.9798H165.252Z" fill="#3D444D"/>
</g>
<defs>
<clipPath id="clip0">
<rect width="230" height="60" fill="white"/>
</clipPath>
</defs>
</svg>
