<svg width="25" height="25" viewBox="0 0 25 25" fill="none" xmlns="http://www.w3.org/2000/svg">
<circle cx="12.5" cy="12.5" r="12.5" fill="#DA2128"/>
<g clip-path="url(#clip0)">
<path d="M16.1289 13.9934C15.873 13.727 15.5643 13.5845 15.2372 13.5845C14.9127 13.5845 14.6014 13.7243 14.3349 13.9908L13.5012 14.8218C13.4326 14.7849 13.364 14.7506 13.2981 14.7163C13.2031 14.6688 13.1134 14.624 13.0369 14.5765C12.256 14.0805 11.5463 13.4341 10.8657 12.5978C10.5359 12.181 10.3143 11.8301 10.1533 11.4739C10.3697 11.2761 10.5702 11.0703 10.7654 10.8724C10.8393 10.7985 10.9131 10.722 10.987 10.6482C11.541 10.0941 11.541 9.37655 10.987 8.82253L10.2668 8.1023C10.185 8.02051 10.1006 7.93609 10.0214 7.85167C9.86313 7.6881 9.69692 7.51925 9.52544 7.36096C9.26953 7.10769 8.9635 6.97314 8.64164 6.97314C8.31978 6.97314 8.00847 7.10769 7.74465 7.36096C7.74201 7.3636 7.74201 7.3636 7.73937 7.36624L6.84238 8.27114C6.50469 8.60884 6.3121 9.0204 6.26989 9.49791C6.20657 10.2683 6.43346 10.9859 6.60758 11.4555C7.03497 12.6084 7.67342 13.6768 8.62581 14.8218C9.78135 16.2016 11.1717 17.2912 12.7599 18.0589C13.3667 18.3465 14.1766 18.6868 15.0815 18.7448C15.1369 18.7475 15.195 18.7501 15.2477 18.7501C15.8571 18.7501 16.369 18.5311 16.77 18.0958C16.7726 18.0906 16.7779 18.0879 16.7805 18.0827C16.9177 17.9164 17.076 17.7661 17.2422 17.6051C17.3556 17.497 17.4717 17.3835 17.5852 17.2648C17.8464 16.9931 17.9835 16.6765 17.9835 16.352C17.9835 16.0248 17.8437 15.7109 17.5773 15.4471L16.1289 13.9934ZM17.0734 16.7715C17.0707 16.7715 17.0707 16.7741 17.0734 16.7715C16.9705 16.8823 16.8649 16.9825 16.7515 17.0933C16.58 17.2569 16.4059 17.4284 16.2423 17.621C15.9759 17.9059 15.6619 18.0404 15.2504 18.0404C15.2108 18.0404 15.1686 18.0404 15.129 18.0378C14.3455 17.9877 13.6173 17.6816 13.0712 17.4205C11.578 16.6976 10.2668 15.6713 9.1772 14.3707C8.27757 13.2864 7.67606 12.2839 7.27769 11.2075C7.03233 10.5506 6.94263 10.0387 6.98221 9.55595C7.00859 9.24728 7.12731 8.99138 7.34628 8.7724L8.24591 7.87277C8.37518 7.75142 8.51237 7.68546 8.64692 7.68546C8.81312 7.68546 8.94767 7.78571 9.0321 7.87014C9.03473 7.87277 9.03737 7.87541 9.04001 7.87805C9.20094 8.02843 9.35396 8.18408 9.51489 8.35029C9.59667 8.43471 9.68109 8.51914 9.76552 8.6062L10.4857 9.32643C10.7654 9.60608 10.7654 9.86462 10.4857 10.1443C10.4092 10.2208 10.3354 10.2973 10.2589 10.3712C10.0373 10.598 9.8262 10.8091 9.59667 11.0149C9.5914 11.0202 9.58612 11.0228 9.58348 11.0281C9.3566 11.255 9.39881 11.4766 9.44629 11.6269C9.44893 11.6349 9.45157 11.6428 9.45421 11.6507C9.64152 12.1045 9.90534 12.5319 10.3064 13.041L10.309 13.0437C11.0371 13.9407 11.8049 14.6398 12.6517 15.1753C12.7599 15.2439 12.8707 15.2993 12.9762 15.3521C13.0712 15.3996 13.1609 15.4444 13.2374 15.4919C13.248 15.4972 13.2585 15.5051 13.2691 15.5104C13.3588 15.5552 13.4432 15.5764 13.5302 15.5764C13.7492 15.5764 13.8864 15.4392 13.9313 15.3943L14.8335 14.492C14.9232 14.4023 15.0657 14.2942 15.2319 14.2942C15.3955 14.2942 15.53 14.3971 15.6118 14.4868C15.6144 14.4894 15.6144 14.4894 15.6171 14.492L17.0707 15.9457C17.3425 16.2148 17.3425 16.4918 17.0734 16.7715Z" fill="white"/>
<path d="M13.0053 9.22338C13.6965 9.33946 14.3244 9.6666 14.8257 10.1679C15.3269 10.6691 15.6514 11.297 15.7702 11.9882C15.7992 12.1623 15.9496 12.2837 16.121 12.2837C16.1422 12.2837 16.1606 12.2811 16.1817 12.2784C16.377 12.2468 16.5062 12.0621 16.4746 11.8669C16.3321 11.0306 15.9364 10.2681 15.3322 9.66396C14.7281 9.05981 13.9656 8.66408 13.1293 8.52161C12.9341 8.48996 12.7521 8.61923 12.7178 8.81182C12.6835 9.00441 12.8101 9.19172 13.0053 9.22338Z" fill="white"/>
<path d="M18.7355 11.764C18.5007 10.3869 17.8517 9.13372 16.8545 8.13647C15.8572 7.13923 14.6041 6.49023 13.2269 6.25543C13.0343 6.22113 12.8523 6.35304 12.818 6.54563C12.7863 6.74086 12.9156 6.9229 13.1108 6.95719C14.3402 7.16561 15.4615 7.74866 16.3532 8.63773C17.2449 9.52945 17.8253 10.6507 18.0337 11.8801C18.0628 12.0542 18.2131 12.1756 18.3846 12.1756C18.4057 12.1756 18.4242 12.1729 18.4453 12.1703C18.6379 12.1413 18.7698 11.9566 18.7355 11.764Z" fill="white"/>
</g>
<defs>
<clipPath id="clip0">
<rect width="12.5" height="12.5" fill="white" transform="translate(6.25 6.25)"/>
</clipPath>
</defs>
</svg>
