<svg width="26" height="26" viewBox="0 0 26 26" fill="none" xmlns="http://www.w3.org/2000/svg">
<g clip-path="url(#clip0)">
<path d="M20.5478 16.1064C20.0156 15.5521 19.3735 15.2558 18.6931 15.2558C18.0181 15.2558 17.3706 15.5466 16.8164 16.1009L15.0823 17.8294C14.9396 17.7526 14.797 17.6813 14.6598 17.6099C14.4622 17.5111 14.2757 17.4179 14.1165 17.3191C12.4922 16.2874 11.0161 14.943 9.60032 13.2035C8.91439 12.3365 8.45344 11.6066 8.1187 10.8658C8.56868 10.4543 8.98572 10.0262 9.3918 9.61467C9.54545 9.46102 9.6991 9.30188 9.85275 9.14823C11.0051 7.99586 11.0051 6.50327 9.85275 5.3509L8.35466 3.85281C8.18455 3.6827 8.00895 3.5071 7.84433 3.3315C7.51508 2.99128 7.16937 2.64008 6.81268 2.31083C6.2804 1.78403 5.64385 1.50417 4.97438 1.50417C4.30491 1.50417 3.65738 1.78403 3.10864 2.31083C3.10315 2.31632 3.10315 2.31632 3.09766 2.32181L1.23192 4.20401C0.52952 4.90641 0.128935 5.76246 0.0411348 6.75569C-0.0905646 8.35803 0.381358 9.85063 0.743532 10.8274C1.6325 13.2254 2.96047 15.4479 4.94145 17.8294C7.34497 20.6994 10.2369 22.9657 13.5403 24.5626C14.8025 25.1607 16.4871 25.8686 18.3693 25.9893C18.4846 25.9948 18.6053 26.0003 18.715 26.0003C19.9826 26.0003 21.0472 25.5448 21.8813 24.6394C21.8868 24.6284 21.8978 24.6229 21.9032 24.6119C22.1886 24.2662 22.5178 23.9534 22.8636 23.6187C23.0995 23.3937 23.341 23.1578 23.5769 22.9108C24.1202 22.3456 24.4055 21.6871 24.4055 21.0122C24.4055 20.3317 24.1147 19.6787 23.5605 19.13L20.5478 16.1064ZM22.5124 21.8847C22.5069 21.8847 22.5069 21.8902 22.5124 21.8847C22.2983 22.1151 22.0788 22.3237 21.8429 22.5541C21.4862 22.8944 21.124 23.2511 20.7838 23.6516C20.2296 24.2443 19.5766 24.5241 18.7205 24.5241C18.6382 24.5241 18.5504 24.5241 18.4681 24.5187C16.8383 24.4144 15.3238 23.7778 14.1879 23.2346C11.0819 21.731 8.35466 19.5964 6.08834 16.8911C4.21711 14.6357 2.96596 12.5505 2.13735 10.3116C1.62702 8.94519 1.44044 7.88062 1.52275 6.87642C1.57763 6.23438 1.82457 5.7021 2.28003 5.24663L4.15126 3.3754C4.42014 3.12298 4.70549 2.98579 4.98535 2.98579C5.33106 2.98579 5.61093 3.19432 5.78652 3.36992C5.79201 3.3754 5.7975 3.38089 5.80299 3.38638C6.13772 3.69917 6.456 4.02293 6.79073 4.36864C6.96084 4.54424 7.13644 4.71984 7.31204 4.90092L8.81013 6.399C9.3918 6.98068 9.3918 7.51845 8.81013 8.10012C8.65099 8.25926 8.49734 8.4184 8.3382 8.57205C7.87725 9.04397 7.43826 9.48297 6.96084 9.91099C6.94987 9.92197 6.9389 9.92745 6.93341 9.93843C6.46148 10.4104 6.54928 10.8713 6.64806 11.1841C6.65355 11.2005 6.65903 11.217 6.66452 11.2335C7.05413 12.1773 7.60288 13.0663 8.43698 14.1254L8.44246 14.1309C9.95701 15.9966 11.5539 17.4508 13.3153 18.5647C13.5403 18.7074 13.7708 18.8227 13.9903 18.9324C14.1879 19.0312 14.3744 19.1245 14.5336 19.2232C14.5555 19.2342 14.5775 19.2507 14.5994 19.2617C14.786 19.3549 14.9616 19.3988 15.1427 19.3988C15.5981 19.3988 15.8835 19.1135 15.9768 19.0202L17.8535 17.1435C18.0401 16.9569 18.3364 16.7319 18.6821 16.7319C19.0223 16.7319 19.3022 16.9459 19.4723 17.1325C19.4778 17.138 19.4778 17.138 19.4833 17.1435L22.5069 20.1671C23.0721 20.7268 23.0721 21.303 22.5124 21.8847Z" fill="#54616C"/>
<path d="M14.0512 6.18474C15.4889 6.42619 16.7949 7.10664 17.8375 8.14926C18.8802 9.19188 19.5551 10.4979 19.8021 11.9356C19.8624 12.2978 20.1752 12.5502 20.5319 12.5502C20.5758 12.5502 20.6142 12.5447 20.6581 12.5392C21.0642 12.4734 21.3331 12.0893 21.2672 11.6832C20.9709 9.94367 20.1478 8.35779 18.8911 7.10115C17.6345 5.84452 16.0486 5.0214 14.3091 4.72507C13.903 4.65922 13.5244 4.92811 13.4531 5.3287C13.3817 5.72928 13.6451 6.11889 14.0512 6.18474Z" fill="#DA2128"/>
<path d="M25.9697 11.4693C25.4813 8.60482 24.1314 5.99827 22.0571 3.924C19.9829 1.84974 17.3763 0.499817 14.5118 0.0114314C14.1113 -0.0599058 13.7326 0.214468 13.6613 0.615054C13.5954 1.02113 13.8643 1.39976 14.2704 1.4711C16.8276 1.90461 19.1597 3.11734 21.0145 4.96662C22.8693 6.82139 24.0765 9.15357 24.51 11.7107C24.5704 12.0729 24.8832 12.3253 25.2399 12.3253C25.2838 12.3253 25.3222 12.3198 25.3661 12.3144C25.7667 12.254 26.041 11.8699 25.9697 11.4693Z" fill="#DA2128"/>
</g>
<defs>
<clipPath id="clip0">
<rect width="26" height="26" fill="white"/>
</clipPath>
</defs>
</svg>
