<svg width="47" height="47" viewBox="0 0 47 47" fill="none" xmlns="http://www.w3.org/2000/svg">
<circle cx="23.5" cy="23.5" r="23.5" fill="#DA2128"/>
<path d="M24.7219 24.3388H33.3576C34.2053 24.3388 35 23.6446 35 22.8512C35 22.0578 34.2053 21.3636 33.3576 21.3636H24.7219V12.6364C24.7219 11.7934 23.8742 11 22.9735 11C22.0728 11 21.2252 11.7934 21.2252 12.6364V21.3636H12.5894C11.7417 21.3636 11 22.0083 11 22.8512C11 23.6942 11.7417 24.3388 12.5894 24.3388H21.2252V33.4132C21.2252 34.2562 22.0728 35 22.9735 35C23.8742 35 24.7219 34.2562 24.7219 33.4132V24.3388Z" fill="white"/>
</svg>
